<?xml version="1.0" standalone="no"?>
<!DOCTYPE svg PUBLIC "-//W3C//DTD SVG 20010904//EN"
 "http://www.w3.org/TR/2001/REC-SVG-20010904/DTD/svg10.dtd">
<svg version="1.0" xmlns="http://www.w3.org/2000/svg"
 width="512.000000pt" height="512.000000pt" viewBox="0 0 512.000000 512.000000"
 preserveAspectRatio="xMidYMid meet">

<g transform="translate(0.000000,512.000000) scale(0.100000,-0.100000)"
fill="#000000" stroke="none">
<path d="M2315 5109 c-556 -57 -1085 -293 -1478 -658 -460 -427 -729 -946
-819 -1576 -17 -118 -17 -512 0 -630 70 -493 249 -915 544 -1284 92 -115 272
-296 387 -389 363 -292 782 -475 1261 -549 143 -22 526 -24 670 -5 284 40 552
121 805 246 277 137 480 282 687 492 212 216 350 407 483 675 125 253 203 510
247 814 20 137 16 523 -5 665 -46 293 -120 534 -243 780 -133 267 -270 460
-477 669 -396 401 -884 648 -1457 736 -126 19 -477 28 -605 14z m565 -115
c442 -58 865 -239 1220 -522 495 -395 823 -990 901 -1637 15 -129 15 -421 0
-550 -56 -466 -238 -900 -529 -1265 -395 -495 -990 -823 -1637 -901 -129 -15
-421 -15 -550 0 -733 89 -1369 481 -1779 1096 -90 135 -215 391 -270 552 -90
266 -129 506 -129 798 0 392 79 729 253 1080 245 495 620 870 1115 1115 300
148 612 232 950 253 100 7 333 -3 455 -19z"/>
<path d="M464 3472 c-33 -22 -34 -46 -34 -911 0 -636 3 -867 12 -886 21 -46
95 -46 116 0 17 37 17 1737 1 1768 -15 29 -28 37 -59 37 -14 0 -30 -4 -36 -8z"/>
<path d="M1865 3420 c-205 -27 -390 -116 -539 -259 -185 -178 -277 -383 -277
-621 0 -390 271 -733 676 -856 83 -25 104 -28 260 -28 202 0 270 15 433 94
116 56 138 81 111 128 -22 40 -67 41 -132 3 -29 -16 -95 -44 -147 -62 -84 -29
-110 -33 -230 -37 -112 -3 -150 -1 -222 17 -314 74 -552 319 -608 625 -20 105
-9 262 25 364 85 255 299 452 570 523 103 27 302 29 420 4 230 -48 395 -175
496 -380 58 -119 85 -228 99 -391 31 -381 199 -657 484 -794 253 -122 580
-130 838 -20 108 46 224 128 315 223 251 262 315 613 168 933 -202 442 -727
654 -1198 484 -121 -44 -191 -88 -195 -122 -4 -36 12 -64 43 -72 18 -5 51 6
117 38 147 69 200 81 368 81 172 0 250 -18 394 -93 72 -37 110 -65 182 -137
102 -101 158 -188 201 -310 25 -72 27 -93 27 -220 1 -202 -39 -323 -156 -479
-99 -132 -267 -241 -443 -287 -104 -28 -303 -30 -420 -4 -356 76 -558 340
-595 778 -15 183 -43 284 -116 427 -133 259 -370 414 -687 449 -107 12 -173
12 -262 1z"/>
</g>
</svg>
