<svg id="svg" version="1.1" xmlns="http://www.w3.org/2000/svg" xmlns:xlink="http://www.w3.org/1999/xlink" width="400" height="385.2781263069846" viewBox="0, 0, 400,385.2781263069846"><g id="svgg"><path id="path0" d="M252.580 57.628 C 254.812 63.331,254.449 69.353,251.330 78.349 C 247.829 88.449,247.747 94.450,251.002 102.250 C 252.025 104.702,252.044 104.507,250.806 104.199 C 245.944 102.987,241.459 104.709,235.167 110.205 C 226.206 118.031,217.943 121.812,209.750 121.835 C 208.002 121.840,207.962 121.921,209.000 123.359 C 218.414 136.405,230.041 139.397,244.724 132.549 C 256.241 127.178,266.779 132.628,271.328 146.308 C 278.305 167.287,268.831 189.130,246.807 202.847 C 225.030 216.410,200.959 215.405,180.598 200.083 C 179.014 198.892,176.384 196.979,174.753 195.833 C 173.122 194.688,171.141 193.221,170.352 192.574 C 167.169 189.966,162.932 186.844,159.556 184.620 C 158.625 184.006,156.842 182.686,155.595 181.688 C 141.885 170.710,129.772 168.321,120.250 174.717 C 118.597 175.827,117.735 176.587,114.250 180.008 C 110.703 183.489,109.937 184.106,105.750 186.856 C 101.358 189.740,100.413 191.021,100.421 194.083 C 100.432 198.103,102.174 200.729,106.833 203.748 C 110.733 206.275,114.059 209.432,116.479 212.903 C 117.263 214.027,117.322 214.251,116.792 214.096 C 116.585 214.036,115.592 213.918,114.583 213.833 C 110.192 213.463,105.147 212.836,103.196 212.417 C 99.478 211.618,96.167 212.597,96.167 214.496 C 96.167 216.172,97.427 217.626,107.982 228.130 C 137.669 257.675,170.419 275.533,197.476 276.930 L 199.703 277.045 197.970 274.897 C 192.095 267.616,188.695 261.567,185.991 253.583 C 182.721 243.929,178.640 236.774,173.167 231.103 L 171.417 229.289 172.417 229.796 C 177.144 232.194,180.755 236.520,187.541 247.917 C 197.999 265.478,202.769 271.574,210.584 277.360 C 225.405 288.332,247.512 289.516,272.997 280.703 L 273.912 280.387 272.747 280.007 C 267.338 278.242,264.040 275.367,253.229 262.993 C 245.210 253.814,239.489 249.691,233.292 248.626 C 231.917 248.389,231.885 248.272,233.125 248.012 C 240.291 246.515,249.037 250.531,258.366 259.600 C 260.474 261.649,260.017 261.555,261.854 260.319 C 308.520 228.941,318.390 162.721,282.947 118.795 C 279.191 114.140,276.201 107.854,274.523 101.083 C 273.656 97.585,273.244 95.041,272.255 87.083 C 270.533 73.232,268.470 68.114,262.623 63.190 C 259.680 60.712,252.156 56.545,252.580 57.628 M205.377 69.973 C 205.268 70.040,204.670 70.074,204.048 70.047 C 203.426 70.021,202.812 70.038,202.685 70.087 C 202.557 70.135,201.732 70.207,200.851 70.248 C 199.971 70.288,198.313 70.437,197.167 70.579 C 196.021 70.721,194.652 70.885,194.125 70.942 C 193.598 71.000,193.167 71.101,193.167 71.166 C 193.167 71.232,192.960 71.284,192.708 71.282 C 192.233 71.279,190.998 71.431,190.417 71.565 C 190.233 71.607,189.948 71.647,189.782 71.654 C 189.616 71.661,189.526 71.741,189.582 71.831 C 189.642 71.928,189.570 71.953,189.410 71.891 C 188.897 71.694,185.109 72.605,185.281 72.884 C 185.342 72.982,185.301 72.999,185.181 72.925 C 184.874 72.736,183.470 72.984,183.606 73.203 C 183.675 73.315,183.640 73.337,183.516 73.260 C 183.405 73.191,182.849 73.251,182.282 73.393 C 181.714 73.535,181.041 73.695,180.785 73.747 C 180.529 73.800,180.355 73.900,180.398 73.970 C 180.441 74.039,180.304 74.110,180.094 74.128 C 179.484 74.178,178.077 74.590,175.792 75.389 C 174.623 75.797,173.667 76.107,173.667 76.077 C 173.667 75.988,171.599 76.854,171.375 77.037 C 171.260 77.131,171.167 77.152,171.167 77.083 C 171.167 77.015,171.044 77.061,170.894 77.185 C 170.744 77.310,170.538 77.417,170.436 77.424 C 170.257 77.435,170.142 77.477,169.125 77.893 C 168.873 77.997,168.667 78.141,168.667 78.215 C 168.667 78.288,168.535 78.326,168.375 78.299 C 168.199 78.269,168.103 78.341,168.132 78.480 C 168.166 78.639,168.072 78.681,167.824 78.616 C 167.398 78.505,166.965 78.642,167.093 78.849 C 167.143 78.930,167.073 78.954,166.938 78.902 C 166.803 78.850,166.541 78.959,166.357 79.143 C 166.167 79.333,165.995 79.402,165.961 79.301 C 165.925 79.193,165.794 79.230,165.629 79.394 C 165.480 79.544,165.195 79.667,164.996 79.667 C 164.771 79.667,164.601 79.797,164.545 80.014 C 164.495 80.205,164.408 80.289,164.352 80.201 C 164.292 80.105,163.926 80.189,163.455 80.406 C 163.018 80.607,162.704 80.816,162.758 80.869 C 162.812 80.923,162.551 81.018,162.178 81.081 C 161.805 81.144,161.500 81.263,161.500 81.345 C 161.500 81.427,161.313 81.541,161.084 81.598 C 160.856 81.655,160.710 81.769,160.761 81.851 C 160.812 81.933,160.704 82.000,160.522 82.000 C 160.340 82.000,160.077 82.114,159.937 82.253 C 159.798 82.392,159.624 82.488,159.551 82.466 C 159.381 82.415,158.483 82.997,158.214 83.331 C 158.061 83.521,158.009 83.529,158.005 83.363 C 158.001 83.197,157.935 83.208,157.738 83.405 C 157.594 83.549,157.407 83.667,157.321 83.667 C 157.236 83.667,157.167 83.784,157.167 83.927 C 157.167 84.069,157.088 84.138,156.992 84.078 C 156.766 83.939,155.667 84.457,155.667 84.702 C 155.667 84.805,155.617 84.840,155.557 84.779 C 155.394 84.616,154.986 85.010,155.111 85.211 C 155.170 85.307,155.138 85.336,155.041 85.275 C 154.788 85.119,154.314 85.334,154.445 85.546 C 154.513 85.655,154.453 85.684,154.290 85.622 C 154.019 85.518,153.589 85.867,153.768 86.046 C 153.822 86.100,153.710 86.103,153.519 86.053 C 153.291 85.994,153.135 86.055,153.068 86.230 C 153.011 86.378,152.911 86.465,152.844 86.424 C 152.778 86.383,152.481 86.570,152.185 86.841 C 151.889 87.112,151.555 87.333,151.444 87.333 C 151.332 87.333,150.980 87.571,150.662 87.862 C 150.344 88.153,150.065 88.378,150.042 88.362 C 149.855 88.234,149.697 88.386,149.784 88.611 C 149.857 88.802,149.827 88.849,149.687 88.763 C 149.488 88.640,147.667 89.762,147.667 90.008 C 147.667 90.074,147.509 90.169,147.317 90.219 C 147.094 90.278,147.012 90.385,147.092 90.515 C 147.167 90.636,147.149 90.675,147.047 90.612 C 146.782 90.448,145.456 91.478,145.565 91.763 C 145.636 91.948,145.562 91.980,145.246 91.901 C 144.930 91.822,144.833 91.863,144.833 92.075 C 144.833 92.228,144.758 92.306,144.665 92.249 C 144.573 92.192,144.454 92.260,144.400 92.400 C 144.346 92.540,144.163 92.698,143.993 92.752 C 143.807 92.811,143.721 92.948,143.777 93.094 C 143.839 93.255,143.791 93.307,143.634 93.246 C 143.390 93.153,141.304 94.814,140.081 96.077 C 139.712 96.457,139.273 96.821,139.105 96.885 C 138.927 96.953,138.837 97.104,138.891 97.243 C 138.951 97.401,138.902 97.452,138.749 97.393 C 138.429 97.270,133.492 102.120,133.614 102.437 C 133.673 102.590,133.621 102.639,133.462 102.578 C 133.179 102.469,131.556 104.279,131.632 104.617 C 131.659 104.736,131.575 104.833,131.444 104.833 C 131.314 104.833,130.879 105.202,130.478 105.652 C 126.852 109.730,125.754 111.175,125.789 111.823 C 125.807 112.173,125.789 112.193,125.687 111.934 C 125.571 111.642,125.535 111.653,125.200 112.079 C 125.001 112.332,124.879 112.605,124.929 112.686 C 124.979 112.767,124.904 112.833,124.763 112.833 C 124.622 112.833,124.459 113.021,124.402 113.250 C 124.344 113.479,124.238 113.667,124.166 113.667 C 124.094 113.667,123.784 114.060,123.478 114.542 C 123.172 115.023,122.789 115.562,122.628 115.740 C 122.332 116.065,122.271 116.240,122.321 116.625 C 122.336 116.740,122.273 116.833,122.180 116.833 C 121.746 116.833,120.710 118.499,120.926 118.849 C 120.976 118.930,120.911 118.955,120.780 118.905 C 120.527 118.808,120.268 119.260,120.429 119.519 C 120.481 119.605,120.437 119.654,120.330 119.629 C 120.223 119.604,120.049 119.733,119.943 119.917 C 119.837 120.100,119.712 120.287,119.667 120.333 C 119.565 120.435,119.259 120.959,118.608 122.149 C 118.211 122.875,118.152 123.105,118.305 123.349 C 118.445 123.574,118.445 123.681,118.304 123.768 C 118.196 123.835,118.161 123.811,118.222 123.711 C 118.281 123.616,118.204 123.436,118.050 123.311 C 117.857 123.154,117.808 123.148,117.895 123.292 C 117.963 123.406,117.940 123.500,117.843 123.500 C 117.746 123.500,117.667 123.568,117.667 123.651 C 117.667 123.734,117.394 124.277,117.061 124.859 C 116.728 125.441,116.453 126.010,116.450 126.125 C 116.447 126.240,116.400 126.333,116.346 126.333 C 116.196 126.333,115.754 127.389,115.805 127.628 C 115.829 127.744,115.752 127.819,115.633 127.794 C 115.505 127.768,115.422 127.900,115.429 128.115 C 115.436 128.316,115.361 128.466,115.262 128.449 C 115.164 128.431,115.101 128.585,115.123 128.791 C 115.147 129.015,115.080 129.149,114.956 129.124 C 114.843 129.102,114.769 129.177,114.792 129.292 C 114.815 129.406,114.758 129.500,114.667 129.500 C 114.575 129.500,114.500 129.614,114.500 129.754 C 114.500 129.893,114.196 130.613,113.823 131.353 C 113.451 132.093,113.245 132.641,113.365 132.571 C 113.493 132.495,113.473 132.575,113.317 132.763 C 113.007 133.136,112.765 133.685,112.816 133.901 C 112.835 133.985,112.791 134.097,112.717 134.151 C 112.479 134.327,112.050 135.228,111.759 136.167 C 111.602 136.671,111.373 137.308,111.249 137.583 C 110.989 138.163,110.589 139.212,110.583 139.333 C 110.580 139.379,110.530 139.492,110.471 139.585 C 110.412 139.677,110.308 140.052,110.241 140.418 C 110.174 140.784,110.073 141.121,110.018 141.167 C 109.906 141.259,109.386 142.823,108.743 145.000 C 108.513 145.779,108.259 146.642,108.177 146.917 C 108.096 147.192,107.909 147.942,107.762 148.583 C 107.615 149.225,107.378 150.200,107.234 150.750 C 106.786 152.471,106.690 152.888,106.505 153.935 C 106.407 154.495,106.378 155.088,106.441 155.254 C 106.526 155.476,106.499 155.519,106.337 155.419 C 106.171 155.316,106.139 155.390,106.203 155.725 C 106.249 155.968,106.218 156.167,106.133 156.167 C 106.048 156.167,105.996 156.298,106.016 156.458 C 106.036 156.619,106.006 156.938,105.948 157.167 C 105.839 157.599,105.792 157.901,105.508 160.000 C 105.063 163.280,104.930 164.485,104.924 165.292 C 104.920 165.773,104.877 166.167,104.828 166.167 C 104.607 166.167,104.413 179.480,104.632 179.698 C 104.762 179.829,107.118 178.719,108.833 177.720 L 109.250 177.477 109.250 172.863 C 109.250 170.326,109.306 168.123,109.375 167.968 C 109.444 167.814,109.425 167.640,109.333 167.583 C 109.222 167.515,109.221 167.376,109.331 167.171 C 109.422 167.002,109.570 166.050,109.661 165.056 C 109.883 162.627,110.127 160.593,110.320 159.583 C 110.547 158.388,110.743 156.798,110.704 156.458 C 110.686 156.298,110.735 156.167,110.814 156.167 C 110.893 156.167,111.016 155.773,111.088 155.292 C 111.161 154.810,111.233 154.379,111.249 154.333 C 111.371 153.977,111.514 153.334,111.564 152.917 C 111.596 152.642,111.665 152.304,111.717 152.167 C 111.816 151.905,112.066 150.832,112.358 149.417 C 112.452 148.958,112.594 148.506,112.672 148.410 C 112.751 148.315,112.779 147.978,112.734 147.660 C 112.674 147.232,112.697 147.148,112.824 147.333 C 112.971 147.549,112.995 147.544,112.997 147.295 C 113.000 147.026,113.541 145.160,113.832 144.417 C 113.904 144.233,114.151 143.482,114.381 142.747 C 114.858 141.225,115.845 138.596,116.339 137.531 C 116.523 137.135,116.630 136.741,116.577 136.656 C 116.524 136.570,116.568 136.500,116.675 136.500 C 116.799 136.500,116.832 136.350,116.765 136.083 C 116.688 135.776,116.727 135.667,116.913 135.667 C 117.053 135.667,117.167 135.565,117.167 135.442 C 117.167 135.318,117.431 134.718,117.755 134.108 C 118.078 133.499,118.302 133.000,118.251 133.000 C 118.200 133.000,118.278 132.819,118.423 132.597 C 118.569 132.375,118.664 132.093,118.636 131.971 C 118.608 131.848,118.759 131.574,118.972 131.361 C 119.186 131.148,119.317 130.864,119.265 130.728 C 119.213 130.593,119.237 130.524,119.318 130.574 C 119.551 130.718,119.662 130.229,119.445 130.010 C 119.296 129.860,119.315 129.838,119.527 129.919 C 119.802 130.024,120.070 129.580,119.964 129.196 C 119.938 129.101,120.052 128.922,120.218 128.799 C 120.383 128.675,120.538 128.439,120.563 128.274 C 120.587 128.109,120.677 127.923,120.762 127.862 C 121.033 127.666,121.348 126.992,121.246 126.827 C 121.191 126.739,121.228 126.667,121.326 126.667 C 121.425 126.667,121.633 126.385,121.789 126.042 C 121.945 125.698,122.223 125.194,122.407 124.922 C 122.591 124.650,122.756 124.325,122.775 124.200 C 122.793 124.074,122.938 123.877,123.096 123.761 C 123.256 123.644,123.330 123.464,123.263 123.354 C 123.196 123.247,123.204 123.169,123.279 123.182 C 123.624 123.242,123.690 123.145,123.479 122.885 C 123.348 122.724,123.335 122.653,123.447 122.721 C 123.684 122.863,124.176 122.219,124.061 121.919 C 124.017 121.804,124.098 121.665,124.240 121.610 C 124.383 121.555,124.500 121.391,124.500 121.245 C 124.500 121.100,124.564 121.020,124.643 121.069 C 124.722 121.117,124.928 120.878,125.101 120.537 C 125.275 120.196,125.462 119.879,125.517 119.833 C 125.572 119.787,125.813 119.450,126.053 119.083 C 126.293 118.717,126.749 118.045,127.067 117.591 C 127.384 117.137,127.606 116.703,127.560 116.628 C 127.513 116.553,127.570 116.512,127.686 116.538 C 127.802 116.563,127.928 116.433,127.967 116.250 C 128.006 116.067,128.139 115.858,128.263 115.786 C 128.387 115.715,128.751 115.265,129.072 114.786 C 129.393 114.308,129.883 113.654,130.161 113.333 C 130.438 113.013,130.666 112.674,130.666 112.582 C 130.666 112.489,130.818 112.319,131.002 112.204 C 131.246 112.052,131.311 111.885,131.239 111.599 C 131.184 111.381,131.214 111.157,131.304 111.101 C 131.401 111.042,131.433 111.137,131.382 111.333 C 131.267 111.774,131.457 111.756,131.834 111.292 C 132.058 111.015,132.091 110.860,131.957 110.699 C 131.858 110.579,131.846 110.494,131.930 110.510 C 132.267 110.574,132.667 110.492,132.667 110.359 C 132.667 110.215,133.571 109.149,134.719 107.940 C 135.468 107.152,135.764 106.667,135.496 106.667 C 135.396 106.667,135.365 106.584,135.428 106.482 C 135.508 106.352,135.581 106.361,135.675 106.513 C 135.783 106.689,135.856 106.688,136.071 106.511 C 136.340 106.287,136.445 105.912,136.194 106.066 C 136.118 106.113,136.056 106.044,136.056 105.912 C 136.056 105.729,136.109 105.717,136.280 105.859 C 136.495 106.037,137.986 104.667,137.996 104.282 C 137.998 104.208,138.088 104.201,138.195 104.268 C 138.327 104.349,138.355 104.296,138.280 104.102 C 138.220 103.945,138.235 103.856,138.313 103.904 C 138.506 104.023,139.034 103.422,138.875 103.264 C 138.806 103.195,138.863 103.164,139.000 103.194 C 139.159 103.230,139.240 103.137,139.224 102.941 C 139.207 102.737,139.254 102.687,139.362 102.796 C 139.627 103.060,140.504 102.147,140.269 101.851 C 140.121 101.662,140.154 101.640,140.446 101.733 C 140.927 101.885,141.143 101.517,140.744 101.225 C 140.575 101.101,140.511 101.000,140.601 101.000 C 140.692 101.000,140.859 101.093,140.973 101.206 C 141.170 101.404,141.656 101.010,143.130 99.458 C 143.283 99.298,143.472 99.167,143.552 99.167 C 143.856 99.167,144.633 98.272,144.552 98.015 C 144.479 97.784,144.492 97.782,144.646 98.000 C 144.814 98.236,145.481 97.627,145.385 97.326 C 145.369 97.277,145.515 97.224,145.709 97.209 C 145.903 97.195,146.126 97.067,146.205 96.925 C 146.285 96.783,146.441 96.667,146.552 96.667 C 146.663 96.667,146.895 96.479,147.067 96.250 C 147.239 96.021,147.463 95.833,147.565 95.833 C 147.667 95.832,148.035 95.570,148.384 95.249 C 148.733 94.929,149.092 94.667,149.181 94.667 C 149.271 94.667,149.387 94.554,149.440 94.417 C 149.492 94.279,149.642 94.167,149.773 94.167 C 149.904 94.167,150.053 94.055,150.106 93.918 C 150.159 93.781,150.265 93.708,150.342 93.756 C 150.420 93.803,150.565 93.691,150.664 93.505 C 150.764 93.319,150.992 93.167,151.173 93.167 C 151.353 93.167,151.500 93.103,151.500 93.026 C 151.500 92.949,151.762 92.744,152.083 92.572 C 152.404 92.399,152.667 92.158,152.667 92.036 C 152.667 91.914,152.739 91.858,152.827 91.913 C 152.916 91.967,153.141 91.859,153.327 91.673 C 153.514 91.486,153.667 91.377,153.667 91.431 C 153.667 91.484,153.948 91.313,154.292 91.050 C 154.635 90.786,155.198 90.426,155.542 90.248 C 155.885 90.070,156.167 89.862,156.167 89.786 C 156.167 89.709,156.237 89.690,156.323 89.744 C 156.409 89.797,156.540 89.745,156.615 89.629 C 156.772 89.382,157.291 89.032,157.708 88.892 C 158.049 88.778,158.088 88.566,157.792 88.437 C 157.677 88.387,157.801 88.392,158.068 88.448 C 158.397 88.517,158.610 88.470,158.734 88.302 C 158.835 88.166,159.131 88.002,159.393 87.937 C 159.660 87.870,159.906 87.676,159.954 87.492 C 160.043 87.153,160.333 87.037,160.333 87.342 C 160.333 87.438,160.605 87.310,160.936 87.057 C 161.268 86.804,161.631 86.584,161.744 86.567 C 161.856 86.551,162.253 86.344,162.627 86.109 C 163.000 85.873,163.499 85.631,163.736 85.572 C 163.973 85.512,164.167 85.367,164.167 85.248 C 164.167 85.125,164.293 85.063,164.458 85.104 C 164.619 85.144,164.968 84.987,165.234 84.755 C 165.746 84.309,165.921 84.223,165.749 84.502 C 165.691 84.595,165.910 84.539,166.236 84.377 C 166.561 84.216,166.795 83.993,166.755 83.883 C 166.712 83.762,166.782 83.721,166.934 83.780 C 167.202 83.883,168.500 83.367,168.500 83.157 C 168.500 83.088,168.650 83.070,168.833 83.118 C 169.020 83.167,169.167 83.123,169.167 83.019 C 169.167 82.917,169.317 82.833,169.500 82.833 C 169.705 82.833,169.834 82.721,169.836 82.542 C 169.838 82.356,169.883 82.319,169.961 82.440 C 170.048 82.574,170.307 82.521,170.855 82.256 C 171.279 82.051,171.767 81.840,171.938 81.789 C 172.657 81.571,174.961 80.702,175.508 80.442 C 175.834 80.287,176.284 80.127,176.508 80.086 C 176.733 80.044,177.404 79.828,178.000 79.605 C 178.596 79.381,179.421 79.108,179.833 78.998 C 180.246 78.888,180.846 78.697,181.167 78.574 C 181.638 78.394,182.346 78.206,183.000 78.087 C 183.546 77.988,185.461 77.411,185.604 77.303 C 185.707 77.225,185.925 77.212,186.090 77.275 C 186.311 77.360,186.353 77.333,186.252 77.169 C 186.160 77.021,186.179 76.988,186.310 77.069 C 186.483 77.176,187.995 76.945,188.667 76.710 C 188.804 76.662,189.104 76.599,189.333 76.570 C 190.172 76.463,191.926 76.129,192.250 76.014 C 192.433 75.949,192.921 75.879,193.333 75.858 C 193.746 75.837,194.458 75.750,194.917 75.665 C 196.363 75.395,200.172 74.992,202.292 74.885 C 203.415 74.829,204.333 74.738,204.334 74.683 C 204.334 74.628,206.434 74.583,209.000 74.583 C 211.567 74.583,213.667 74.628,213.667 74.682 C 213.667 74.736,214.173 74.794,214.792 74.811 C 215.410 74.827,216.854 74.924,218.000 75.025 C 219.146 75.126,220.458 75.226,220.917 75.246 C 221.375 75.266,221.862 75.329,222.000 75.386 C 222.137 75.443,222.641 75.524,223.119 75.565 C 223.598 75.606,224.048 75.676,224.119 75.721 C 224.191 75.765,225.097 75.926,226.133 76.078 C 228.245 76.389,228.566 76.446,228.991 76.581 C 229.155 76.633,229.562 76.685,229.895 76.698 C 230.228 76.710,230.500 76.775,230.500 76.841 C 230.500 76.908,230.856 77.012,231.292 77.072 C 231.727 77.132,232.271 77.247,232.500 77.327 C 233.001 77.502,236.837 78.506,237.220 78.562 C 237.369 78.584,237.542 78.653,237.605 78.716 C 237.668 78.779,237.834 78.737,237.975 78.624 C 238.121 78.505,238.183 78.496,238.120 78.602 C 237.957 78.874,239.181 79.314,239.634 79.146 C 239.884 79.053,240.000 79.075,240.001 79.214 C 240.003 79.434,240.740 79.831,241.158 79.837 C 241.300 79.839,241.745 79.990,242.146 80.172 C 243.607 80.834,243.732 80.799,244.076 79.622 C 244.594 77.853,244.860 77.090,245.016 76.925 C 245.423 76.496,245.019 76.038,244.139 75.930 C 244.078 75.923,243.972 75.860,243.903 75.792 C 243.834 75.723,243.615 75.667,243.417 75.667 C 243.218 75.667,243.004 75.615,242.940 75.551 C 242.877 75.488,242.664 75.411,242.467 75.381 C 242.270 75.351,242.029 75.260,241.930 75.179 C 241.748 75.029,240.133 74.542,239.290 74.382 C 239.036 74.334,238.788 74.229,238.738 74.147 C 238.688 74.066,238.441 74.000,238.190 74.000 C 237.939 74.000,237.662 73.934,237.575 73.853 C 237.488 73.772,236.404 73.470,235.167 73.183 C 233.929 72.895,232.637 72.575,232.295 72.471 C 231.953 72.367,231.503 72.273,231.295 72.261 C 231.087 72.250,230.842 72.194,230.750 72.138 C 230.609 72.051,229.613 71.863,226.917 71.412 C 226.642 71.367,226.079 71.257,225.667 71.169 C 225.254 71.081,224.401 70.968,223.770 70.918 C 223.140 70.868,222.577 70.798,222.520 70.762 C 222.424 70.703,220.999 70.543,219.469 70.419 C 218.889 70.372,217.191 70.197,216.083 70.071 C 214.984 69.945,205.561 69.859,205.377 69.973 M208.460 70.448 C 208.301 70.490,208.001 70.491,207.794 70.451 C 207.586 70.411,207.717 70.377,208.083 70.375 C 208.450 70.374,208.620 70.406,208.460 70.448 M211.127 70.448 C 210.968 70.490,210.668 70.491,210.460 70.451 C 210.253 70.411,210.383 70.377,210.750 70.375 C 211.117 70.374,211.286 70.406,211.127 70.448 M205.333 74.167 C 205.333 74.258,205.221 74.333,205.083 74.333 C 204.946 74.333,204.833 74.258,204.833 74.167 C 204.833 74.075,204.946 74.000,205.083 74.000 C 205.221 74.000,205.333 74.075,205.333 74.167 M187.333 76.667 C 187.333 76.758,187.179 76.833,186.990 76.833 C 186.801 76.833,186.693 76.758,186.750 76.667 C 186.807 76.575,186.961 76.500,187.093 76.500 C 187.225 76.500,187.333 76.575,187.333 76.667 M172.667 76.974 C 172.667 77.104,171.562 77.505,171.231 77.496 C 171.074 77.491,172.329 76.870,172.542 76.847 C 172.610 76.839,172.667 76.896,172.667 76.974 M126.978 110.541 C 126.838 110.802,126.754 110.847,126.702 110.689 C 126.660 110.564,126.729 110.396,126.855 110.317 C 127.188 110.106,127.200 110.127,126.978 110.541 M158.285 209.766 C 158.956 210.298,159.928 211.972,159.699 212.201 C 159.321 212.579,154.500 210.225,154.500 209.663 C 154.500 209.005,157.428 209.085,158.285 209.766 M153.500 211.602 C 154.816 212.937,156.654 213.651,159.125 213.787 C 161.055 213.893,161.074 213.910,160.188 214.710 C 158.263 216.450,155.174 215.544,153.364 212.711 C 152.397 211.196,152.475 210.562,153.500 211.602 M119.844 213.339 C 120.560 213.722,120.241 214.167,119.250 214.167 C 118.401 214.167,118.333 214.138,118.333 213.778 C 118.333 213.145,119.078 212.929,119.844 213.339 M124.032 213.883 C 124.122 214.027,123.919 214.098,123.310 214.134 C 122.365 214.191,122.245 214.139,122.399 213.736 C 122.523 213.412,123.811 213.528,124.032 213.883 M242.292 314.284 C 242.498 314.324,242.835 314.324,243.042 314.284 C 243.248 314.245,243.079 314.212,242.667 314.212 C 242.254 314.212,242.085 314.245,242.292 314.284 M202.744 323.167 C 202.744 327.796,202.765 329.690,202.792 327.375 C 202.818 325.060,202.818 321.273,202.792 318.958 C 202.765 316.644,202.744 318.537,202.744 323.167 M220.910 322.833 C 220.910 327.279,220.932 329.098,220.958 326.875 C 220.984 324.652,220.984 321.015,220.958 318.792 C 220.932 316.569,220.910 318.387,220.910 322.833 M242.401 329.250 C 242.401 330.717,242.427 331.294,242.457 330.534 C 242.488 329.773,242.488 328.573,242.457 327.867 C 242.426 327.161,242.401 327.783,242.401 329.250 M248.564 333.833 C 248.564 334.979,248.591 335.448,248.623 334.875 C 248.656 334.302,248.656 333.365,248.623 332.792 C 248.591 332.219,248.564 332.688,248.564 333.833 M183.375 337.124 L 190.333 337.170 190.333 339.834 L 190.333 342.497 180.333 342.542 L 170.333 342.587 180.375 342.585 L 190.417 342.583 190.417 339.833 L 190.417 337.083 183.417 337.081 L 176.417 337.078 183.375 337.124 M118.884 337.291 C 119.967 337.320,121.692 337.320,122.718 337.291 C 123.744 337.262,122.858 337.238,120.750 337.238 C 118.642 337.238,117.802 337.262,118.884 337.291 M260.000 342.542 C 260.000 342.610,261.406 342.652,263.125 342.634 C 266.250 342.601,265.881 342.542,262.041 342.460 C 260.918 342.436,260.000 342.473,260.000 342.542 M114.470 342.625 C 116.424 342.652,119.574 342.651,121.470 342.625 C 123.365 342.598,121.767 342.576,117.917 342.576 C 114.067 342.576,112.515 342.598,114.470 342.625 M146.970 342.625 C 149.933 342.650,154.733 342.650,157.637 342.625 C 160.541 342.599,158.117 342.578,152.250 342.579 C 146.383 342.579,144.008 342.599,146.970 342.625 M284.708 342.624 C 285.602 342.654,287.065 342.654,287.958 342.624 C 288.852 342.594,288.121 342.570,286.333 342.570 C 284.546 342.570,283.815 342.594,284.708 342.624 " stroke="none" fill="#9c75d3" fill-rule="evenodd"></path><path id="path1" d="M0.000 192.583 L 0.000 385.167 200.000 385.167 L 400.000 385.167 400.000 192.583 L 400.000 0.000 200.000 0.000 L 0.000 0.000 0.000 192.583 M254.201 58.012 C 262.106 61.477,267.024 66.303,269.590 73.117 C 270.773 76.256,271.379 79.409,272.418 87.813 C 274.368 103.584,277.083 111.573,282.892 118.631 C 302.285 142.192,309.181 175.580,300.897 205.802 C 294.805 228.030,281.145 247.180,262.015 260.309 L 260.280 261.499 258.598 259.875 C 249.174 250.768,240.618 246.714,233.572 248.016 C 232.104 248.287,232.130 248.357,233.831 248.701 C 240.631 250.075,245.658 254.023,256.173 266.246 C 263.275 274.502,267.819 278.262,272.667 279.895 C 273.316 280.113,273.882 280.326,273.923 280.368 C 273.965 280.410,272.893 280.791,271.541 281.216 C 238.919 291.471,216.666 287.318,200.733 268.000 C 196.900 263.353,194.498 259.730,188.081 248.917 C 181.061 237.089,177.311 232.471,172.807 230.108 C 171.775 229.567,171.668 229.536,172.127 229.914 C 177.052 233.965,182.685 243.582,186.161 253.876 C 188.793 261.672,193.172 269.257,198.854 275.862 C 199.879 277.054,199.902 277.000,198.375 276.998 C 178.193 276.971,149.121 263.679,124.417 243.181 C 114.651 235.079,97.659 218.522,96.510 215.990 C 95.376 213.491,97.208 211.779,100.732 212.045 C 101.878 212.132,101.975 212.114,102.058 211.798 C 102.119 211.564,102.233 211.490,102.420 211.562 C 102.571 211.619,102.799 211.667,102.927 211.667 C 103.055 211.667,103.207 211.854,103.265 212.083 C 103.335 212.364,103.486 212.501,103.726 212.502 C 103.923 212.504,104.252 212.550,104.458 212.605 C 104.777 212.691,104.833 212.640,104.833 212.269 C 104.833 211.523,106.268 211.616,106.463 212.375 C 106.649 213.096,107.933 213.309,108.029 212.634 C 108.143 211.829,110.000 212.101,110.000 212.923 C 110.000 213.148,110.094 213.334,110.208 213.336 C 110.323 213.337,110.585 213.383,110.792 213.438 C 111.105 213.522,111.167 213.472,111.167 213.136 C 111.167 212.602,111.461 212.333,112.044 212.333 C 112.747 212.333,113.167 212.617,113.167 213.093 C 113.167 213.385,113.293 213.556,113.594 213.671 C 114.309 213.943,114.500 213.875,114.500 213.347 C 114.500 212.776,114.649 212.703,115.564 212.825 C 116.165 212.906,116.257 212.977,116.333 213.417 C 116.396 213.786,116.523 213.931,116.818 213.973 C 118.052 214.148,111.306 206.791,108.562 204.969 C 107.932 204.551,106.775 203.792,105.991 203.283 C 102.118 200.765,100.207 197.496,100.370 193.667 C 100.496 190.706,101.359 189.661,106.500 186.245 C 110.255 183.750,111.063 183.079,115.277 178.951 C 119.402 174.909,122.399 172.954,126.055 171.919 C 134.777 169.451,144.922 172.886,156.333 182.171 C 157.204 182.880,159.154 184.285,160.667 185.294 C 163.655 187.287,167.632 190.222,169.759 192.004 C 170.497 192.622,171.997 193.760,173.092 194.532 C 175.976 196.565,177.952 198.000,180.500 199.913 C 184.525 202.933,186.429 204.168,189.856 205.980 C 214.554 219.036,246.367 210.752,264.581 186.522 C 274.280 173.619,276.308 156.352,269.745 142.537 C 264.743 132.007,254.586 127.683,245.535 132.231 C 230.785 139.642,218.278 136.551,208.782 123.146 C 208.352 122.538,208.000 122.005,208.000 121.961 C 208.000 121.917,208.769 121.829,209.708 121.765 C 216.709 121.292,222.466 119.393,227.900 115.764 C 230.011 114.354,231.395 113.275,235.583 109.773 C 242.179 104.256,245.643 103.049,251.363 104.272 L 251.809 104.368 251.059 102.559 C 247.634 94.309,247.694 89.046,251.337 78.167 C 254.492 68.742,254.751 64.496,252.584 57.670 C 252.446 57.233,252.400 57.223,254.201 58.012 M214.167 69.836 C 224.595 70.368,235.002 72.400,244.027 75.665 L 245.450 76.180 244.645 78.548 C 244.118 80.101,243.767 80.898,243.629 80.862 C 243.512 80.832,242.217 80.407,240.750 79.918 C 176.091 58.362,109.336 106.746,109.333 175.169 L 109.333 177.755 106.912 178.963 C 104.928 179.952,104.473 180.123,104.391 179.910 C 104.336 179.767,104.332 176.823,104.382 173.367 C 105.243 113.831,155.093 66.821,214.167 69.836 M155.292 209.367 C 154.457 209.589,154.499 209.730,155.612 210.442 C 157.335 211.544,159.667 212.444,159.667 212.007 C 159.667 210.291,157.266 208.843,155.292 209.367 M152.901 211.583 C 153.657 214.726,158.168 216.557,160.250 214.566 L 160.750 214.087 159.333 213.964 C 156.748 213.738,154.928 213.052,153.542 211.781 L 152.780 211.083 152.901 211.583 M245.250 314.340 C 248.364 314.784,251.049 315.898,252.871 317.502 L 253.536 318.087 251.684 320.335 C 249.510 322.974,249.756 322.826,248.783 322.083 C 243.128 317.765,235.871 320.263,234.547 326.983 C 233.080 334.429,240.466 339.903,247.333 336.460 L 248.417 335.917 248.463 333.875 L 248.510 331.833 245.422 331.833 L 242.333 331.833 242.333 329.167 L 242.333 326.500 248.417 326.500 L 254.500 326.500 254.500 332.631 L 254.500 338.762 253.700 339.360 C 244.473 346.248,231.792 343.314,228.670 333.568 C 225.187 322.695,233.801 312.705,245.250 314.340 M282.604 326.083 C 285.304 332.408,287.991 338.708,288.574 340.083 L 289.635 342.583 286.531 342.629 C 284.824 342.654,283.350 342.644,283.255 342.608 C 283.161 342.572,282.521 341.145,281.833 339.438 L 280.583 336.334 274.730 336.334 L 268.877 336.333 267.583 339.500 L 266.290 342.667 263.145 342.667 C 261.415 342.667,260.000 342.632,260.000 342.590 C 260.000 342.548,262.163 337.429,264.807 331.215 C 267.452 325.001,270.133 318.698,270.766 317.208 L 271.917 314.499 274.805 314.541 L 277.693 314.583 282.604 326.083 M127.899 315.216 C 133.826 317.309,134.997 324.236,130.010 327.709 C 129.786 327.865,129.636 328.013,129.677 328.038 C 129.717 328.063,130.191 328.304,130.729 328.573 C 136.102 331.260,136.030 338.674,130.606 341.335 C 128.224 342.503,127.911 342.537,118.875 342.619 L 110.833 342.692 110.833 328.669 L 110.833 314.646 118.708 314.699 L 126.583 314.751 127.899 315.216 M162.667 317.417 L 162.667 320.167 155.250 320.167 L 147.833 320.167 147.833 323.000 L 147.833 325.833 154.417 325.833 L 161.000 325.833 161.000 328.583 L 161.000 331.333 154.417 331.333 L 147.833 331.333 147.833 334.250 L 147.833 337.167 155.417 337.167 L 163.000 337.167 163.000 339.917 L 163.000 342.667 152.333 342.667 L 141.667 342.667 141.667 328.667 L 141.667 314.667 152.167 314.667 L 162.667 314.667 162.667 317.417 M176.526 325.625 C 176.541 331.652,176.549 336.677,176.545 336.792 C 176.539 336.955,178.040 337.000,183.519 337.000 L 190.500 337.000 190.500 339.833 L 190.500 342.667 180.417 342.667 L 170.333 342.667 170.333 328.667 L 170.333 314.667 173.417 314.667 L 176.500 314.667 176.526 325.625 M202.868 323.792 C 202.916 332.823,202.921 332.926,203.293 333.847 C 205.224 338.619,212.820 338.445,214.318 333.595 C 214.653 332.508,214.667 332.127,214.667 323.566 L 214.667 314.667 217.845 314.667 L 221.022 314.667 220.955 323.958 C 220.873 335.265,220.616 336.625,218.013 339.527 C 213.948 344.058,204.461 344.295,199.917 339.978 C 196.871 337.085,196.503 335.252,196.501 322.958 L 196.500 314.667 199.660 314.667 L 202.820 314.667 202.868 323.792 M117.000 323.102 L 117.000 326.037 120.625 325.960 C 125.941 325.848,127.350 325.066,126.911 322.468 C 126.593 320.585,125.438 320.167,120.553 320.167 L 117.000 320.167 117.000 323.102 M273.037 326.106 C 272.106 328.385,271.297 330.381,271.238 330.542 C 271.138 330.814,271.374 330.833,274.750 330.833 C 277.581 330.833,278.350 330.788,278.282 330.625 C 278.016 329.989,274.953 322.534,274.851 322.273 C 274.762 322.048,274.262 323.105,273.037 326.106 M117.000 334.167 L 117.000 337.167 121.114 337.167 C 126.844 337.167,128.127 336.741,128.427 334.739 C 128.861 331.845,127.493 331.167,121.220 331.167 L 117.000 331.167 117.000 334.167 " stroke="none" fill="#040404" fill-rule="evenodd"></path><path id="path2" d="M102.078 211.842 C 101.928 212.084,102.290 212.327,102.804 212.331 C 103.083 212.333,103.176 212.252,103.136 212.042 C 103.071 211.701,102.259 211.548,102.078 211.842 M104.944 211.944 C 104.503 212.385,105.122 212.833,106.172 212.833 C 106.498 212.833,106.443 212.194,106.098 211.961 C 105.870 211.807,105.093 211.796,104.944 211.944 M108.000 212.727 C 108.000 213.081,108.094 213.132,108.940 213.231 C 110.029 213.359,110.052 213.349,109.907 212.770 C 109.746 212.130,108.000 212.090,108.000 212.727 M111.333 212.975 C 111.333 213.442,111.379 213.475,112.177 213.585 C 113.171 213.722,113.252 213.672,113.046 213.052 C 112.799 212.307,111.333 212.241,111.333 212.975 M114.611 212.944 C 114.256 213.300,114.514 213.833,115.042 213.836 C 115.340 213.837,115.752 213.883,115.958 213.938 C 116.385 214.053,116.509 213.409,116.133 213.033 C 115.922 212.822,114.799 212.756,114.611 212.944 M118.444 213.278 C 117.974 213.749,118.352 214.167,119.250 214.167 C 120.050 214.167,120.167 214.125,120.167 213.839 C 120.167 213.321,118.835 212.887,118.444 213.278 M122.399 213.736 C 122.245 214.139,122.365 214.191,123.310 214.134 C 124.336 214.073,124.275 213.741,123.206 213.570 C 122.638 213.480,122.485 213.511,122.399 213.736 M238.967 314.673 C 230.285 316.808,225.659 326.086,229.068 334.526 C 232.672 343.450,244.962 345.857,253.604 339.332 L 254.500 338.656 254.500 332.578 L 254.500 326.500 248.500 326.500 L 242.500 326.500 242.500 329.167 L 242.500 331.833 245.588 331.833 L 248.677 331.833 248.630 333.875 L 248.583 335.917 247.568 336.453 C 242.023 339.386,235.495 336.401,234.496 330.476 C 233.047 321.884,241.728 316.747,248.786 322.020 L 249.656 322.669 251.568 320.381 C 252.903 318.784,253.432 318.035,253.319 317.899 C 251.103 315.230,243.581 313.539,238.967 314.673 M271.724 315.125 C 271.291 316.173,266.480 327.493,263.233 335.106 C 261.546 339.060,260.167 342.341,260.167 342.398 C 260.167 342.454,261.541 342.500,263.220 342.500 L 266.274 342.500 267.519 339.458 L 268.765 336.417 274.696 336.373 L 280.627 336.329 281.830 339.290 C 282.492 340.918,283.088 342.308,283.154 342.379 C 283.220 342.450,284.670 342.487,286.375 342.462 L 289.476 342.417 288.267 339.583 C 287.602 338.025,284.933 331.744,282.336 325.625 L 277.614 314.500 274.799 314.500 L 271.983 314.500 271.724 315.125 M111.000 328.568 L 111.000 342.500 118.708 342.498 C 127.331 342.495,128.394 342.391,130.507 341.343 C 135.921 338.657,136.020 331.267,130.677 328.649 C 129.293 327.971,129.313 328.049,130.329 327.360 C 133.644 325.112,133.937 319.790,130.899 317.012 C 128.675 314.980,127.736 314.805,118.542 314.712 L 111.000 314.635 111.000 328.568 M141.667 328.583 L 141.667 342.500 152.250 342.500 L 162.833 342.500 162.833 339.833 L 162.833 337.167 155.250 337.167 L 147.667 337.167 147.667 334.250 L 147.667 331.333 154.250 331.333 L 160.833 331.333 160.833 328.583 L 160.833 325.833 154.250 325.833 L 147.667 325.833 147.667 323.000 L 147.667 320.167 155.167 320.167 L 162.667 320.167 162.667 317.417 L 162.667 314.667 152.167 314.667 L 141.667 314.667 141.667 328.583 M170.444 314.778 C 170.383 314.839,170.333 321.101,170.333 328.694 L 170.333 342.500 180.333 342.500 L 190.333 342.500 190.333 339.833 L 190.333 337.167 183.417 337.167 L 176.500 337.167 176.500 325.917 L 176.500 314.667 173.528 314.667 C 171.893 314.667,170.506 314.717,170.444 314.778 M196.708 324.208 C 196.761 332.764,196.798 333.862,197.067 334.833 C 198.582 340.314,202.354 342.917,208.750 342.896 C 214.168 342.879,217.557 341.069,219.480 337.167 C 220.766 334.555,220.829 333.931,220.831 323.625 L 220.833 314.667 217.843 314.667 L 214.852 314.667 214.794 323.625 C 214.731 333.444,214.722 333.534,213.689 335.076 C 211.663 338.100,206.290 338.185,204.021 335.229 C 202.781 333.614,202.765 333.476,202.703 323.542 L 202.648 314.667 199.649 314.667 L 196.649 314.667 196.708 324.208 M125.296 320.492 C 127.585 321.497,127.648 324.284,125.406 325.417 L 124.417 325.917 120.625 325.972 L 116.833 326.027 116.833 323.125 C 116.833 321.528,116.890 320.164,116.958 320.094 C 117.288 319.754,124.388 320.094,125.296 320.492 M276.577 326.381 C 277.543 328.737,278.333 330.740,278.333 330.832 C 278.333 330.940,277.019 331.000,274.667 331.000 C 272.650 331.000,271.000 330.975,271.000 330.944 C 271.000 330.914,271.757 329.057,272.681 326.819 C 273.606 324.581,274.433 322.571,274.519 322.352 C 274.730 321.816,274.602 321.565,276.577 326.381 M126.380 331.319 C 129.228 332.221,129.262 335.977,126.429 336.950 C 125.712 337.196,124.925 337.241,121.250 337.245 L 116.917 337.250 116.871 334.339 C 116.846 332.738,116.865 331.325,116.914 331.198 C 117.028 330.899,125.389 331.005,126.380 331.319 " stroke="none" fill="#fbfbfb" fill-rule="evenodd"></path><path id="path3" d="M205.954 69.794 C 205.791 69.866,206.653 69.907,207.870 69.886 C 209.087 69.864,211.411 69.900,213.034 69.965 C 214.656 70.030,215.930 70.030,215.864 69.964 C 215.696 69.796,206.314 69.635,205.954 69.794 M202.500 69.958 C 202.501 70.027,202.013 70.058,201.417 70.027 C 200.821 69.997,200.333 70.034,200.333 70.111 C 200.333 70.265,202.269 70.253,202.667 70.097 C 202.804 70.043,203.426 70.021,204.048 70.047 C 204.670 70.074,205.270 70.037,205.381 69.967 C 205.492 69.896,204.890 69.837,204.042 69.836 C 203.194 69.834,202.500 69.890,202.500 69.958 M216.514 70.069 C 216.578 70.132,217.977 70.298,219.469 70.419 C 221.038 70.546,222.425 70.704,222.528 70.767 C 222.590 70.805,223.227 70.869,223.945 70.909 L 225.250 70.981 223.833 70.749 C 221.230 70.322,216.308 69.864,216.514 70.069 M196.728 70.427 C 194.348 70.716,192.660 71.042,194.333 70.891 C 196.758 70.671,200.195 70.207,199.417 70.205 C 198.958 70.203,197.749 70.304,196.728 70.427 M207.794 70.451 C 208.001 70.491,208.301 70.490,208.460 70.448 C 208.620 70.406,208.450 70.374,208.083 70.375 C 207.717 70.377,207.586 70.411,207.794 70.451 M210.460 70.451 C 210.668 70.491,210.968 70.490,211.127 70.448 C 211.286 70.406,211.117 70.374,210.750 70.375 C 210.383 70.377,210.253 70.411,210.460 70.451 M191.678 71.123 C 191.296 71.169,191.178 71.238,191.325 71.328 C 191.446 71.403,191.777 71.397,192.060 71.316 C 192.344 71.235,192.709 71.210,192.871 71.262 C 193.034 71.314,193.167 71.276,193.167 71.178 C 193.167 71.002,192.789 70.988,191.678 71.123 M225.705 71.153 C 225.956 71.235,226.443 71.344,226.789 71.394 C 228.188 71.598,230.432 72.013,230.667 72.112 C 230.804 72.170,231.087 72.232,231.295 72.250 C 231.503 72.267,231.953 72.367,232.295 72.471 C 232.637 72.575,233.929 72.895,235.167 73.183 C 236.404 73.470,237.488 73.772,237.575 73.853 C 237.662 73.934,237.939 74.000,238.190 74.000 C 238.441 74.000,238.688 74.066,238.738 74.147 C 238.788 74.229,239.036 74.334,239.290 74.382 C 240.133 74.542,241.748 75.029,241.930 75.179 C 242.029 75.260,242.270 75.351,242.467 75.381 C 242.664 75.411,242.877 75.488,242.940 75.551 C 243.004 75.615,243.218 75.667,243.417 75.667 C 243.615 75.667,243.834 75.723,243.903 75.792 C 243.972 75.860,244.078 75.923,244.139 75.930 C 245.019 76.038,245.423 76.496,245.016 76.925 C 244.860 77.090,244.594 77.853,244.076 79.622 C 243.732 80.799,243.607 80.834,242.146 80.172 C 241.745 79.990,241.267 79.843,241.083 79.847 C 240.774 79.852,242.955 80.744,243.570 80.863 C 243.788 80.906,244.013 80.424,244.648 78.548 L 245.450 76.180 244.027 75.665 C 240.017 74.214,233.963 72.561,229.444 71.682 C 226.689 71.146,224.927 70.897,225.705 71.153 M187.750 71.915 C 186.833 72.126,186.260 72.307,186.476 72.316 C 186.692 72.326,187.325 72.215,187.884 72.070 C 188.442 71.926,189.070 71.840,189.278 71.879 C 189.486 71.919,189.620 71.893,189.576 71.821 C 189.531 71.749,189.665 71.658,189.873 71.618 C 190.225 71.550,190.222 71.545,189.833 71.538 C 189.604 71.534,188.667 71.703,187.750 71.915 M183.178 72.970 C 181.855 73.307,180.898 73.607,181.052 73.637 C 181.206 73.667,181.753 73.568,182.269 73.418 C 182.784 73.269,183.313 73.187,183.445 73.238 C 183.576 73.288,183.641 73.260,183.589 73.175 C 183.467 72.979,184.903 72.757,185.197 72.926 C 185.318 72.996,185.359 72.990,185.288 72.912 C 185.217 72.834,185.367 72.678,185.621 72.565 C 186.419 72.212,185.667 72.337,183.178 72.970 M179.250 74.081 C 178.608 74.292,178.210 74.473,178.364 74.483 C 178.519 74.492,178.840 74.426,179.077 74.336 C 179.315 74.245,179.727 74.155,179.993 74.134 C 180.259 74.114,180.444 74.044,180.404 73.980 C 180.364 73.915,180.425 73.824,180.541 73.777 C 181.119 73.544,180.275 73.743,179.250 74.081 M204.833 74.167 C 204.833 74.258,204.946 74.333,205.083 74.333 C 205.221 74.333,205.333 74.258,205.333 74.167 C 205.333 74.075,205.221 74.000,205.083 74.000 C 204.946 74.000,204.833 74.075,204.833 74.167 M175.625 75.218 C 174.548 75.601,173.667 75.964,173.667 76.023 C 173.667 76.133,177.799 74.757,177.964 74.591 C 178.184 74.372,177.449 74.569,175.625 75.218 M204.334 74.684 C 204.333 74.739,203.452 74.827,202.375 74.879 C 200.185 74.986,195.895 75.451,195.000 75.679 C 194.327 75.851,194.578 75.831,198.250 75.415 C 201.918 75.000,205.072 74.837,209.458 74.835 C 211.773 74.834,213.667 74.777,213.667 74.708 C 213.667 74.640,211.567 74.583,209.000 74.583 C 206.434 74.583,204.334 74.629,204.334 74.684 M213.942 74.875 C 213.985 74.944,214.492 75.000,215.070 75.000 C 216.268 75.000,220.414 75.396,222.987 75.757 C 223.943 75.891,224.805 75.992,224.904 75.983 C 225.226 75.952,223.937 75.664,223.083 75.576 C 222.625 75.529,222.137 75.443,222.000 75.385 C 221.862 75.326,221.412 75.266,221.000 75.250 C 220.588 75.233,219.162 75.134,217.833 75.029 C 214.386 74.755,213.855 74.734,213.942 74.875 M192.167 76.026 C 191.297 76.295,189.128 76.633,188.616 76.579 C 188.323 76.548,188.233 76.566,188.417 76.618 C 188.639 76.682,188.391 76.789,187.667 76.940 C 187.071 77.065,186.486 77.130,186.366 77.085 C 186.234 77.035,186.196 77.079,186.269 77.197 C 186.350 77.329,186.293 77.354,186.090 77.275 C 185.925 77.212,185.707 77.225,185.604 77.303 C 185.461 77.411,183.546 77.988,183.000 78.087 C 182.346 78.206,181.638 78.394,181.167 78.574 C 180.846 78.697,180.246 78.888,179.833 78.998 C 179.421 79.108,178.596 79.381,178.000 79.605 C 177.404 79.828,176.734 80.044,176.510 80.085 C 176.136 80.154,175.387 80.460,174.333 80.974 C 173.802 81.233,174.060 81.153,177.000 80.144 C 181.626 78.556,187.048 77.161,192.083 76.264 C 193.747 75.967,194.154 75.855,193.500 75.873 C 192.996 75.886,192.396 75.955,192.167 76.026 M170.667 77.056 C 166.744 78.641,164.717 79.570,165.041 79.634 C 165.202 79.665,165.461 79.563,165.617 79.407 C 165.787 79.237,165.926 79.194,165.961 79.301 C 165.995 79.402,166.167 79.333,166.357 79.143 C 166.541 78.959,166.803 78.850,166.938 78.902 C 167.073 78.954,167.143 78.930,167.093 78.849 C 166.965 78.642,167.398 78.505,167.824 78.616 C 168.072 78.681,168.166 78.639,168.132 78.480 C 168.103 78.341,168.199 78.269,168.375 78.299 C 168.535 78.326,168.667 78.288,168.667 78.215 C 168.667 78.141,168.873 77.997,169.125 77.893 C 170.142 77.477,170.257 77.435,170.436 77.424 C 170.538 77.417,170.725 77.325,170.852 77.220 C 170.979 77.115,171.139 77.020,171.206 77.009 C 171.330 76.990,172.632 76.459,173.250 76.175 C 173.433 76.091,173.508 76.020,173.417 76.017 C 173.325 76.015,172.088 76.482,170.667 77.056 M225.417 76.110 C 225.600 76.149,226.762 76.369,228.000 76.599 C 231.014 77.160,235.036 78.144,238.077 79.064 C 239.448 79.479,240.607 79.782,240.653 79.736 C 240.698 79.691,240.570 79.610,240.368 79.557 C 240.165 79.504,240.000 79.360,240.000 79.236 C 240.000 79.074,239.897 79.049,239.634 79.146 C 239.181 79.314,237.957 78.874,238.120 78.602 C 238.183 78.496,238.121 78.505,237.975 78.624 C 237.834 78.737,237.668 78.779,237.605 78.716 C 237.542 78.653,237.369 78.584,237.220 78.562 C 236.837 78.506,233.001 77.502,232.500 77.327 C 232.271 77.247,231.727 77.132,231.292 77.072 C 230.856 77.012,230.500 76.908,230.500 76.842 C 230.500 76.776,230.193 76.709,229.818 76.695 C 229.444 76.680,229.081 76.633,229.013 76.591 C 228.944 76.549,228.670 76.477,228.403 76.432 C 226.712 76.143,225.707 76.005,225.417 76.021 L 225.083 76.039 225.417 76.110 M186.750 76.667 C 186.693 76.758,186.801 76.833,186.990 76.833 C 187.179 76.833,187.333 76.758,187.333 76.667 C 187.333 76.575,187.225 76.500,187.093 76.500 C 186.961 76.500,186.807 76.575,186.750 76.667 M171.750 77.176 C 170.987 77.537,171.089 77.587,172.022 77.307 C 172.377 77.201,172.667 77.051,172.667 76.974 C 172.667 76.779,172.518 76.812,171.750 77.176 M163.076 80.430 C 162.255 80.837,161.771 81.133,162.000 81.087 C 162.229 81.042,162.523 81.004,162.653 81.002 C 162.783 81.001,162.838 80.949,162.775 80.886 C 162.712 80.823,163.018 80.607,163.455 80.406 C 164.018 80.147,164.286 80.095,164.372 80.228 C 164.447 80.343,164.497 80.286,164.500 80.083 C 164.504 79.807,164.533 79.793,164.667 80.000 C 164.764 80.150,164.829 80.171,164.831 80.052 C 164.836 79.643,164.531 79.709,163.076 80.430 M161.071 81.413 C 160.895 81.547,160.825 81.657,160.917 81.659 C 161.164 81.663,161.588 81.365,161.483 81.261 C 161.433 81.211,161.248 81.279,161.071 81.413 M172.917 81.435 C 172.550 81.574,172.110 81.732,171.938 81.786 C 171.767 81.839,171.279 82.051,170.855 82.256 C 170.307 82.521,170.048 82.574,169.961 82.440 C 169.883 82.319,169.838 82.356,169.836 82.542 C 169.834 82.721,169.705 82.833,169.500 82.833 C 169.317 82.833,169.167 82.909,169.167 83.002 C 169.167 83.099,169.435 83.056,169.792 82.903 C 170.135 82.755,171.167 82.334,172.083 81.968 C 173.000 81.601,173.781 81.271,173.819 81.234 C 173.958 81.100,173.569 81.187,172.917 81.435 M160.042 81.967 C 159.520 82.218,159.321 82.500,159.667 82.500 C 159.758 82.500,159.833 82.427,159.833 82.338 C 159.833 82.249,160.075 82.114,160.370 82.037 C 160.665 81.961,160.834 81.855,160.745 81.802 C 160.656 81.750,160.340 81.824,160.042 81.967 M158.627 82.716 C 158.284 82.918,158.003 83.190,158.002 83.321 C 158.000 83.510,158.060 83.501,158.292 83.277 C 158.452 83.123,158.771 82.850,159.000 82.670 C 159.548 82.242,159.400 82.260,158.627 82.716 M168.500 83.147 C 168.500 83.364,167.210 83.886,166.934 83.780 C 166.772 83.718,166.713 83.761,166.768 83.903 C 166.848 84.111,166.444 84.327,165.810 84.415 C 165.660 84.436,165.360 84.618,165.143 84.821 L 164.750 85.188 165.167 85.026 C 166.607 84.466,168.986 83.197,168.759 83.110 C 168.616 83.055,168.500 83.072,168.500 83.147 M156.868 83.696 C 156.382 83.977,156.024 84.246,156.072 84.294 C 156.120 84.342,156.272 84.287,156.411 84.172 C 156.549 84.057,156.776 84.006,156.915 84.059 C 157.066 84.117,157.167 84.063,157.167 83.923 C 157.167 83.794,157.317 83.642,157.500 83.583 C 157.683 83.525,157.833 83.408,157.833 83.322 C 157.833 83.125,157.899 83.099,156.868 83.696 M153.833 85.550 C 140.787 93.822,130.217 104.062,121.888 116.500 C 119.022 120.778,115.110 127.778,115.584 127.778 C 115.722 127.778,115.826 127.697,115.815 127.597 C 115.761 127.134,115.860 126.924,115.983 127.238 C 116.095 127.525,116.120 127.530,116.216 127.279 C 116.275 127.126,116.257 127.000,116.177 127.000 C 116.097 127.000,116.070 126.850,116.118 126.667 C 116.166 126.483,116.259 126.333,116.325 126.333 C 116.391 126.333,116.447 126.240,116.450 126.125 C 116.453 126.010,116.728 125.441,117.061 124.859 C 117.394 124.277,117.667 123.734,117.667 123.651 C 117.667 123.568,117.742 123.500,117.833 123.500 C 118.120 123.500,118.252 123.578,118.204 123.721 C 118.179 123.796,118.234 123.812,118.326 123.755 C 118.436 123.687,118.428 123.548,118.305 123.349 C 118.152 123.105,118.211 122.875,118.608 122.149 C 119.259 120.959,119.565 120.435,119.667 120.333 C 119.712 120.287,119.837 120.100,119.943 119.917 C 120.049 119.733,120.223 119.604,120.330 119.629 C 120.437 119.654,120.481 119.605,120.429 119.519 C 120.268 119.260,120.527 118.808,120.780 118.905 C 120.911 118.955,120.976 118.930,120.926 118.849 C 120.710 118.499,121.746 116.833,122.180 116.833 C 122.273 116.833,122.336 116.740,122.321 116.625 C 122.271 116.240,122.332 116.065,122.628 115.740 C 122.789 115.562,123.172 115.023,123.478 114.542 C 123.784 114.060,124.094 113.667,124.166 113.667 C 124.238 113.667,124.344 113.479,124.402 113.250 C 124.459 113.021,124.622 112.833,124.763 112.833 C 124.904 112.833,124.979 112.767,124.929 112.686 C 124.879 112.605,125.001 112.332,125.200 112.079 C 125.535 111.653,125.571 111.642,125.687 111.934 C 125.789 112.193,125.807 112.173,125.789 111.823 C 125.754 111.175,126.852 109.730,130.478 105.652 C 130.879 105.202,131.314 104.833,131.444 104.833 C 131.575 104.833,131.659 104.734,131.632 104.612 C 131.571 104.334,132.591 103.151,132.761 103.304 C 132.830 103.366,132.839 103.333,132.781 103.231 C 132.635 102.975,133.261 102.435,133.518 102.594 C 133.658 102.681,133.692 102.639,133.624 102.463 C 133.468 102.056,137.208 98.450,137.509 98.717 C 137.695 98.882,137.699 98.870,137.527 98.642 C 137.295 98.333,138.389 97.255,138.782 97.406 C 138.903 97.452,138.946 97.387,138.891 97.243 C 138.837 97.104,138.927 96.953,139.105 96.885 C 139.273 96.821,139.712 96.457,140.081 96.077 C 141.304 94.814,143.390 93.153,143.634 93.246 C 143.791 93.307,143.839 93.255,143.777 93.094 C 143.721 92.948,143.807 92.811,143.993 92.752 C 144.163 92.698,144.346 92.540,144.400 92.400 C 144.454 92.260,144.573 92.192,144.665 92.249 C 144.758 92.306,144.833 92.228,144.833 92.075 C 144.833 91.863,144.930 91.822,145.246 91.901 C 145.562 91.980,145.636 91.948,145.565 91.763 C 145.456 91.478,146.782 90.448,147.047 90.612 C 147.149 90.675,147.167 90.636,147.092 90.515 C 147.012 90.385,147.094 90.278,147.317 90.219 C 147.509 90.169,147.667 90.074,147.667 90.008 C 147.667 89.762,149.488 88.640,149.687 88.763 C 149.827 88.849,149.857 88.802,149.784 88.611 C 149.725 88.458,149.750 88.333,149.839 88.333 C 149.927 88.333,150.035 88.331,150.079 88.328 C 150.122 88.325,150.401 88.100,150.699 87.828 C 150.997 87.556,151.332 87.333,151.444 87.333 C 151.555 87.333,151.889 87.112,152.185 86.841 C 152.481 86.570,152.778 86.383,152.844 86.424 C 152.911 86.465,153.011 86.378,153.068 86.230 C 153.135 86.055,153.291 85.994,153.519 86.053 C 153.710 86.103,153.822 86.100,153.768 86.046 C 153.589 85.867,154.019 85.518,154.290 85.622 C 154.453 85.684,154.513 85.655,154.445 85.546 C 154.314 85.334,154.788 85.119,155.041 85.275 C 155.138 85.336,155.170 85.307,155.111 85.211 C 154.996 85.026,155.387 84.609,155.536 84.759 C 155.585 84.808,155.670 84.732,155.724 84.591 C 155.855 84.250,156.000 84.176,153.833 85.550 M163.254 85.761 C 162.982 85.903,162.524 86.164,162.238 86.341 C 161.952 86.518,161.687 86.632,161.650 86.594 C 161.612 86.556,161.319 86.746,160.999 87.014 C 160.437 87.486,162.727 86.408,163.745 85.722 C 164.197 85.417,163.861 85.444,163.254 85.761 M159.954 87.492 C 159.906 87.676,159.660 87.870,159.393 87.937 C 159.131 88.002,158.835 88.166,158.734 88.302 C 158.607 88.475,158.406 88.515,158.068 88.436 C 157.726 88.357,157.656 88.371,157.829 88.486 C 157.963 88.575,158.038 88.671,157.995 88.699 C 157.406 89.080,157.207 89.191,156.970 89.271 C 156.816 89.323,156.648 89.475,156.597 89.608 C 156.536 89.766,156.749 89.701,157.210 89.420 C 157.599 89.184,158.460 88.678,159.125 88.296 C 159.790 87.913,160.333 87.503,160.333 87.384 C 160.333 87.047,160.049 87.128,159.954 87.492 M248.561 90.917 C 248.561 91.833,248.589 92.187,248.623 91.703 C 248.657 91.218,248.656 90.468,248.622 90.036 C 248.588 89.604,248.560 90.000,248.561 90.917 M156.167 89.795 C 156.167 89.866,155.885 90.070,155.542 90.248 C 155.198 90.426,154.635 90.786,154.292 91.050 C 153.948 91.313,153.667 91.484,153.667 91.431 C 153.667 91.377,153.514 91.486,153.327 91.673 C 153.141 91.859,152.916 91.967,152.827 91.913 C 152.739 91.858,152.667 91.914,152.667 92.036 C 152.667 92.158,152.404 92.399,152.083 92.572 C 151.762 92.744,151.500 92.949,151.500 93.026 C 151.500 93.103,151.353 93.167,151.173 93.167 C 150.992 93.167,150.764 93.319,150.664 93.505 C 150.565 93.691,150.420 93.803,150.342 93.756 C 150.265 93.708,150.159 93.781,150.106 93.918 C 150.053 94.055,149.904 94.167,149.773 94.167 C 149.642 94.167,149.492 94.279,149.440 94.417 C 149.387 94.554,149.271 94.667,149.181 94.667 C 149.092 94.667,148.733 94.929,148.384 95.249 C 148.035 95.570,147.667 95.832,147.565 95.833 C 147.463 95.833,147.239 96.021,147.067 96.250 C 146.895 96.479,146.663 96.667,146.552 96.667 C 146.441 96.667,146.285 96.783,146.205 96.925 C 146.126 97.067,145.903 97.195,145.709 97.209 C 145.515 97.224,145.369 97.277,145.385 97.326 C 145.481 97.627,144.814 98.236,144.646 98.000 C 144.492 97.782,144.479 97.784,144.552 98.015 C 144.633 98.272,143.856 99.167,143.552 99.167 C 143.472 99.167,143.283 99.298,143.130 99.458 C 141.656 101.010,141.170 101.404,140.973 101.206 C 140.859 101.093,140.692 101.000,140.601 101.000 C 140.511 101.000,140.575 101.101,140.744 101.225 C 141.143 101.517,140.927 101.885,140.446 101.733 C 140.154 101.640,140.121 101.662,140.269 101.851 C 140.504 102.147,139.627 103.060,139.362 102.796 C 139.254 102.687,139.207 102.737,139.224 102.941 C 139.239 103.118,139.156 103.231,139.029 103.204 C 138.908 103.179,138.850 103.225,138.900 103.307 C 139.020 103.500,138.427 104.038,138.269 103.880 C 138.203 103.814,138.203 103.901,138.270 104.074 C 138.353 104.293,138.331 104.351,138.195 104.268 C 138.088 104.201,137.998 104.208,137.996 104.282 C 137.986 104.667,136.495 106.037,136.280 105.859 C 136.109 105.717,136.056 105.729,136.056 105.912 C 136.056 106.044,136.118 106.113,136.194 106.066 C 136.445 105.912,136.340 106.287,136.071 106.511 C 135.856 106.688,135.783 106.689,135.675 106.513 C 135.581 106.361,135.508 106.352,135.428 106.482 C 135.365 106.584,135.396 106.667,135.496 106.667 C 135.770 106.667,135.460 107.162,134.691 107.955 C 134.326 108.331,133.972 108.589,133.904 108.528 C 133.836 108.467,133.825 108.496,133.880 108.594 C 133.936 108.691,133.685 109.094,133.324 109.490 C 132.962 109.885,132.667 110.274,132.667 110.354 C 132.667 110.491,132.271 110.575,131.930 110.510 C 131.846 110.494,131.858 110.579,131.957 110.699 C 132.091 110.860,132.058 111.015,131.834 111.292 C 131.457 111.756,131.267 111.774,131.382 111.333 C 131.433 111.137,131.401 111.042,131.304 111.101 C 131.214 111.157,131.184 111.378,131.237 111.592 C 131.304 111.858,131.239 112.049,131.031 112.198 C 130.865 112.318,130.668 112.567,130.595 112.750 C 130.509 112.963,130.433 113.008,130.383 112.875 C 130.341 112.760,130.228 112.667,130.132 112.667 C 130.025 112.667,130.036 112.759,130.160 112.909 C 130.321 113.103,130.290 113.227,130.003 113.534 C 129.806 113.744,129.385 114.308,129.067 114.786 C 128.749 115.265,128.387 115.715,128.263 115.786 C 128.139 115.858,128.006 116.067,127.967 116.250 C 127.928 116.433,127.802 116.563,127.686 116.538 C 127.570 116.512,127.513 116.553,127.560 116.628 C 127.606 116.703,127.384 117.137,127.067 117.591 C 126.749 118.045,126.293 118.717,126.053 119.083 C 125.813 119.450,125.572 119.787,125.517 119.833 C 125.462 119.879,125.275 120.196,125.101 120.537 C 124.928 120.878,124.722 121.117,124.643 121.069 C 124.564 121.020,124.500 121.100,124.500 121.245 C 124.500 121.391,124.383 121.555,124.240 121.610 C 124.098 121.665,124.017 121.804,124.061 121.919 C 124.175 122.215,123.684 122.861,123.447 122.728 C 123.339 122.668,123.352 122.723,123.476 122.851 C 123.668 123.049,123.729 123.038,123.892 122.773 C 131.544 110.332,142.217 99.270,154.212 91.349 C 156.032 90.147,156.614 89.667,156.250 89.667 C 156.204 89.667,156.167 89.725,156.167 89.795 M126.855 110.317 C 126.729 110.396,126.660 110.564,126.702 110.689 C 126.754 110.847,126.838 110.802,126.978 110.541 C 127.200 110.127,127.188 110.106,126.855 110.317 M210.292 121.784 C 210.498 121.824,210.835 121.824,211.042 121.784 C 211.248 121.745,211.079 121.712,210.667 121.712 C 210.254 121.712,210.085 121.745,210.292 121.784 M123.031 123.811 C 122.910 123.887,122.795 124.057,122.776 124.189 C 122.757 124.320,122.591 124.650,122.407 124.922 C 122.223 125.194,121.945 125.698,121.789 126.042 C 121.633 126.385,121.425 126.667,121.326 126.667 C 121.228 126.667,121.195 126.745,121.255 126.841 C 121.314 126.936,121.270 127.126,121.157 127.261 C 121.045 127.397,120.987 127.543,121.029 127.585 C 121.072 127.627,121.471 127.007,121.917 126.206 C 122.363 125.405,122.871 124.506,123.047 124.208 C 123.384 123.636,123.383 123.588,123.031 123.811 M212.326 127.542 C 213.017 128.278,213.167 128.410,213.167 128.285 C 213.167 128.258,212.810 127.902,212.375 127.493 L 211.583 126.750 212.326 127.542 M120.654 127.875 C 120.647 127.898,120.614 128.065,120.580 128.245 C 120.546 128.426,120.383 128.675,120.218 128.799 C 120.052 128.922,119.938 129.101,119.964 129.196 C 120.070 129.580,119.802 130.024,119.527 129.919 C 119.315 129.838,119.296 129.860,119.445 130.010 C 119.662 130.229,119.551 130.718,119.318 130.574 C 119.237 130.524,119.213 130.593,119.265 130.728 C 119.317 130.864,119.185 131.148,118.971 131.362 C 118.758 131.575,118.605 131.814,118.631 131.892 C 118.775 132.324,118.461 132.733,118.229 132.416 C 118.026 132.139,118.000 132.135,118.000 132.385 C 118.000 132.540,118.071 132.667,118.157 132.667 C 118.402 132.667,118.241 133.200,117.681 134.250 C 117.398 134.780,117.167 135.316,117.167 135.440 C 117.167 135.565,117.053 135.667,116.913 135.667 C 116.727 135.667,116.688 135.776,116.765 136.083 C 116.832 136.350,116.799 136.500,116.675 136.500 C 116.568 136.500,116.524 136.570,116.577 136.656 C 116.630 136.741,116.523 137.135,116.339 137.531 C 115.845 138.596,114.858 141.225,114.381 142.747 C 114.151 143.482,113.904 144.233,113.832 144.417 C 113.541 145.160,113.000 147.026,112.997 147.295 C 112.995 147.543,112.971 147.548,112.827 147.333 C 112.697 147.140,112.671 147.187,112.712 147.535 C 112.805 148.326,112.941 148.202,113.250 147.044 C 114.376 142.825,117.049 135.909,119.500 130.875 C 120.314 129.202,120.910 127.833,120.824 127.833 C 120.737 127.833,120.661 127.852,120.654 127.875 M213.833 129.052 C 213.833 129.081,214.077 129.325,214.375 129.594 L 214.917 130.083 214.427 129.542 C 213.971 129.037,213.833 128.923,213.833 129.052 M113.274 132.161 C 112.654 133.559,112.192 134.748,112.247 134.802 C 112.302 134.857,112.390 134.737,112.443 134.534 C 112.496 134.332,112.608 134.167,112.693 134.167 C 112.778 134.167,112.833 134.073,112.814 133.958 C 112.768 133.678,113.102 132.893,113.326 132.755 C 113.425 132.694,113.464 132.577,113.414 132.495 C 113.363 132.414,113.591 131.813,113.920 131.159 C 114.249 130.506,114.492 129.893,114.460 129.796 C 114.427 129.699,113.894 130.764,113.274 132.161 M265.000 135.583 C 265.498 136.087,265.943 136.500,265.989 136.500 C 266.034 136.500,265.665 136.087,265.167 135.583 C 264.669 135.079,264.224 134.667,264.178 134.667 C 264.132 134.667,264.502 135.079,265.000 135.583 M111.208 137.115 C 110.619 138.663,110.380 139.503,110.766 138.667 C 111.481 137.123,111.886 135.997,111.769 135.880 C 111.733 135.844,111.480 136.400,111.208 137.115 M109.524 141.875 C 108.146 146.102,106.575 151.999,106.722 152.393 C 106.760 152.498,106.842 152.358,106.904 152.083 C 106.965 151.808,107.123 151.171,107.255 150.667 C 107.387 150.162,107.615 149.225,107.762 148.583 C 107.909 147.942,108.096 147.192,108.177 146.917 C 108.259 146.642,108.513 145.779,108.743 145.000 C 109.386 142.823,109.906 141.259,110.018 141.167 C 110.073 141.121,110.174 140.783,110.241 140.417 C 110.308 140.050,110.441 139.656,110.535 139.542 C 110.654 139.398,110.653 139.333,110.530 139.333 C 110.432 139.333,109.980 140.477,109.524 141.875 M112.588 148.518 C 112.540 148.646,112.430 149.087,112.343 149.500 C 112.029 150.988,111.810 151.921,111.716 152.167 C 111.664 152.304,111.597 152.717,111.567 153.083 C 111.537 153.450,111.810 152.557,112.174 151.099 C 112.727 148.883,112.934 147.589,112.588 148.518 M106.113 155.031 C 105.580 157.838,104.833 163.157,104.853 164.000 L 104.867 164.583 105.004 164.000 C 105.080 163.679,105.225 162.525,105.326 161.435 C 105.426 160.345,105.537 159.408,105.572 159.352 C 105.606 159.296,105.683 158.837,105.743 158.333 C 105.803 157.829,105.900 157.267,105.958 157.083 C 106.016 156.900,106.045 156.619,106.021 156.458 C 105.998 156.298,106.048 156.167,106.133 156.167 C 106.218 156.167,106.249 155.968,106.203 155.725 C 106.139 155.390,106.171 155.316,106.337 155.419 C 106.499 155.519,106.526 155.476,106.441 155.254 C 106.378 155.088,106.411 154.520,106.515 153.991 C 106.619 153.462,106.674 152.939,106.637 152.827 C 106.600 152.716,106.364 153.708,106.113 155.031 M111.313 153.972 C 111.301 154.079,111.276 154.223,111.256 154.292 C 111.236 154.360,111.161 154.810,111.088 155.292 C 111.016 155.773,110.900 156.167,110.829 156.167 C 110.759 156.167,110.704 156.335,110.706 156.542 C 110.708 156.748,110.665 157.404,110.610 158.000 C 110.488 159.322,110.562 159.051,111.099 156.189 C 111.329 154.964,111.476 153.921,111.425 153.870 C 111.375 153.819,111.324 153.865,111.313 153.972 M110.172 160.616 C 110.063 161.423,109.904 162.585,109.820 163.199 C 109.736 163.812,109.679 164.674,109.693 165.115 C 109.715 165.765,109.732 165.806,109.782 165.333 C 109.816 165.012,109.996 163.524,110.183 162.024 C 110.369 160.525,110.487 159.265,110.446 159.224 C 110.404 159.182,110.281 159.809,110.172 160.616 M273.545 160.000 C 273.545 160.412,273.578 160.581,273.618 160.375 C 273.657 160.169,273.657 159.831,273.618 159.625 C 273.578 159.419,273.545 159.587,273.545 160.000 M104.680 165.375 C 104.673 165.810,104.727 166.167,104.800 166.167 C 104.873 166.167,104.905 165.885,104.871 165.542 C 104.775 164.574,104.694 164.504,104.680 165.375 M109.450 166.583 C 109.299 167.428,109.283 167.879,109.338 169.833 C 109.382 171.407,109.383 171.402,109.526 169.000 C 109.678 166.434,109.647 165.477,109.450 166.583 M104.565 166.530 C 104.415 166.772,104.249 179.539,104.390 179.908 C 104.475 180.129,108.788 178.224,109.319 177.731 C 109.490 177.573,109.152 177.471,108.962 177.623 C 108.341 178.120,104.766 179.833,104.631 179.698 C 104.485 179.552,104.527 171.037,104.690 167.792 C 104.767 166.265,104.761 166.212,104.565 166.530 M109.228 174.250 C 109.228 175.167,109.256 175.520,109.290 175.036 C 109.324 174.552,109.323 173.802,109.289 173.369 C 109.255 172.937,109.227 173.333,109.228 174.250 M304.212 174.833 C 304.212 175.246,304.245 175.415,304.284 175.208 C 304.324 175.002,304.324 174.665,304.284 174.458 C 304.245 174.252,304.212 174.421,304.212 174.833 M111.742 182.375 L 111.083 183.083 111.792 182.425 C 112.450 181.812,112.577 181.667,112.450 181.667 C 112.423 181.667,112.105 181.985,111.742 182.375 M304.212 184.667 C 304.212 185.079,304.245 185.248,304.284 185.042 C 304.324 184.835,304.324 184.498,304.284 184.292 C 304.245 184.085,304.212 184.254,304.212 184.667 M102.244 189.375 L 101.417 190.250 102.292 189.423 C 103.105 188.654,103.243 188.500,103.119 188.500 C 103.092 188.500,102.699 188.894,102.244 189.375 M260.077 191.875 L 259.250 192.750 260.125 191.923 C 260.606 191.468,261.000 191.074,261.000 191.048 C 261.000 190.924,260.846 191.062,260.077 191.875 M256.906 195.042 L 256.417 195.583 256.958 195.094 C 257.463 194.638,257.577 194.500,257.448 194.500 C 257.419 194.500,257.175 194.744,256.906 195.042 M112.583 208.500 C 113.405 209.325,114.114 210.000,114.160 210.000 C 114.206 210.000,113.571 209.325,112.750 208.500 C 111.929 207.675,111.219 207.000,111.174 207.000 C 111.128 207.000,111.762 207.675,112.583 208.500 M208.875 211.948 C 209.035 211.990,209.298 211.990,209.458 211.948 C 209.619 211.906,209.487 211.872,209.167 211.872 C 208.846 211.872,208.715 211.906,208.875 211.948 M99.542 212.121 C 99.885 212.157,100.448 212.157,100.792 212.121 C 101.135 212.085,100.854 212.056,100.167 212.056 C 99.479 212.056,99.198 212.085,99.542 212.121 M210.625 212.118 C 210.831 212.157,211.169 212.157,211.375 212.118 C 211.581 212.078,211.412 212.045,211.000 212.045 C 210.588 212.045,210.419 212.078,210.625 212.118 M219.125 212.118 C 219.331 212.157,219.669 212.157,219.875 212.118 C 220.081 212.078,219.912 212.045,219.500 212.045 C 219.088 212.045,218.919 212.078,219.125 212.118 M214.049 212.291 C 214.764 212.322,215.889 212.322,216.549 212.290 C 217.210 212.259,216.625 212.233,215.250 212.233 C 213.875 212.234,213.335 212.259,214.049 212.291 M154.250 213.833 C 154.608 214.200,154.938 214.500,154.984 214.500 C 155.030 214.500,154.775 214.200,154.417 213.833 C 154.059 213.467,153.728 213.167,153.682 213.167 C 153.637 213.167,153.892 213.467,154.250 213.833 M159.713 213.957 C 160.361 213.997,160.639 214.077,160.562 214.201 C 160.494 214.312,160.525 214.338,160.641 214.266 C 161.090 213.989,160.765 213.835,159.792 213.865 L 158.750 213.896 159.713 213.957 M157.544 215.620 C 157.797 215.658,158.172 215.657,158.377 215.617 C 158.582 215.578,158.375 215.546,157.917 215.548 C 157.458 215.549,157.291 215.581,157.544 215.620 M100.250 220.333 C 100.608 220.700,100.938 221.000,100.984 221.000 C 101.030 221.000,100.775 220.700,100.417 220.333 C 100.059 219.967,99.728 219.667,99.682 219.667 C 99.637 219.667,99.892 219.967,100.250 220.333 M103.083 223.333 C 103.812 224.067,104.446 224.667,104.492 224.667 C 104.538 224.667,103.979 224.067,103.250 223.333 C 102.521 222.600,101.887 222.000,101.841 222.000 C 101.795 222.000,102.354 222.600,103.083 223.333 M172.101 229.805 C 172.054 229.881,172.481 230.387,173.050 230.930 L 174.083 231.917 173.120 230.907 C 172.591 230.352,172.210 229.846,172.273 229.782 C 172.337 229.719,172.343 229.667,172.288 229.667 C 172.232 229.667,172.148 229.729,172.101 229.805 M111.083 231.333 C 111.720 231.975,112.279 232.500,112.324 232.500 C 112.370 232.500,111.887 231.975,111.250 231.333 C 110.613 230.692,110.055 230.167,110.009 230.167 C 109.963 230.167,110.447 230.692,111.083 231.333 M177.333 233.583 C 177.924 234.179,178.445 234.667,178.490 234.667 C 178.536 234.667,178.091 234.179,177.500 233.583 C 176.909 232.987,176.389 232.500,176.343 232.500 C 176.297 232.500,176.743 232.987,177.333 233.583 M113.993 234.042 C 114.684 234.778,114.833 234.910,114.833 234.785 C 114.833 234.758,114.477 234.402,114.042 233.993 L 113.250 233.250 113.993 234.042 M116.000 235.917 C 116.311 236.237,116.603 236.500,116.649 236.500 C 116.695 236.500,116.478 236.237,116.167 235.917 C 115.856 235.596,115.564 235.333,115.518 235.333 C 115.472 235.333,115.689 235.596,116.000 235.917 M117.333 237.052 C 117.333 237.081,117.577 237.325,117.875 237.594 L 118.417 238.083 117.927 237.542 C 117.471 237.037,117.333 236.923,117.333 237.052 M278.906 245.542 L 278.417 246.083 278.958 245.594 C 279.463 245.138,279.577 245.000,279.448 245.000 C 279.419 245.000,279.175 245.244,278.906 245.542 M275.830 248.792 L 274.250 250.417 275.875 248.837 C 277.384 247.369,277.576 247.167,277.455 247.167 C 277.430 247.167,276.699 247.898,275.830 248.792 M235.542 247.789 C 235.977 247.824,236.690 247.824,237.125 247.789 C 237.560 247.755,237.204 247.727,236.333 247.727 C 235.463 247.727,235.106 247.755,235.542 247.789 M272.573 251.875 L 272.083 252.417 272.625 251.927 C 273.130 251.471,273.243 251.333,273.115 251.333 C 273.086 251.333,272.842 251.577,272.573 251.875 M246.826 256.208 C 247.517 256.944,247.667 257.077,247.667 256.951 C 247.667 256.925,247.310 256.568,246.875 256.160 L 246.083 255.417 246.826 256.208 M249.917 259.333 C 250.461 259.883,250.944 260.333,250.990 260.333 C 251.035 260.333,250.628 259.883,250.083 259.333 C 249.539 258.783,249.056 258.333,249.010 258.333 C 248.965 258.333,249.372 258.783,249.917 259.333 M252.667 262.385 C 252.667 262.414,252.910 262.658,253.208 262.927 L 253.750 263.417 253.260 262.875 C 252.804 262.370,252.667 262.257,252.667 262.385 M154.833 263.741 C 154.833 263.787,155.058 263.941,155.333 264.083 C 155.608 264.226,155.833 264.304,155.833 264.259 C 155.833 264.213,155.608 264.059,155.333 263.917 C 155.058 263.774,154.833 263.696,154.833 263.741 M202.667 270.250 C 202.978 270.571,203.270 270.833,203.315 270.833 C 203.361 270.833,203.144 270.571,202.833 270.250 C 202.522 269.929,202.230 269.667,202.185 269.667 C 202.139 269.667,202.356 269.929,202.667 270.250 M261.750 272.500 C 262.755 273.508,263.615 274.333,263.661 274.333 C 263.707 274.333,262.922 273.508,261.917 272.500 C 260.911 271.492,260.052 270.667,260.006 270.667 C 259.960 270.667,260.745 271.492,261.750 272.500 M196.542 276.948 C 196.702 276.990,196.965 276.990,197.125 276.948 C 197.285 276.906,197.154 276.872,196.833 276.872 C 196.512 276.872,196.381 276.906,196.542 276.948 M235.042 286.448 C 235.202 286.490,235.465 286.490,235.625 286.448 C 235.785 286.406,235.654 286.372,235.333 286.372 C 235.012 286.372,234.881 286.406,235.042 286.448 M246.208 286.448 C 246.369 286.490,246.631 286.490,246.792 286.448 C 246.952 286.406,246.821 286.372,246.500 286.372 C 246.179 286.372,246.048 286.406,246.208 286.448 M237.455 286.620 C 237.750 286.657,238.275 286.658,238.621 286.622 C 238.967 286.586,238.725 286.555,238.083 286.555 C 237.442 286.554,237.159 286.583,237.455 286.620 M242.788 286.620 C 243.084 286.657,243.609 286.658,243.955 286.622 C 244.300 286.586,244.058 286.555,243.417 286.555 C 242.775 286.554,242.492 286.583,242.788 286.620 M241.208 314.282 C 241.369 314.323,241.631 314.323,241.792 314.282 C 241.952 314.240,241.821 314.205,241.500 314.205 C 241.179 314.205,241.048 314.240,241.208 314.282 M243.627 314.285 C 243.834 314.324,244.134 314.323,244.294 314.281 C 244.453 314.239,244.283 314.207,243.917 314.209 C 243.550 314.211,243.420 314.245,243.627 314.285 M110.913 328.667 C 110.913 336.412,110.933 339.581,110.958 335.708 C 110.983 331.835,110.983 325.498,110.958 321.625 C 110.933 317.752,110.913 320.921,110.913 328.667 M196.578 323.250 C 196.578 328.017,196.599 329.943,196.625 327.530 C 196.651 325.117,196.651 321.217,196.625 318.863 C 196.599 316.509,196.577 318.483,196.578 323.250 M214.744 323.000 C 214.744 327.629,214.765 329.523,214.792 327.208 C 214.818 324.894,214.818 321.106,214.792 318.792 C 214.765 316.477,214.744 318.371,214.744 323.000 M242.042 319.953 C 242.294 319.991,242.706 319.991,242.958 319.953 C 243.210 319.915,243.004 319.883,242.500 319.883 C 241.996 319.883,241.790 319.915,242.042 319.953 M118.625 320.124 C 119.473 320.154,120.860 320.154,121.708 320.124 C 122.556 320.094,121.862 320.069,120.167 320.069 C 118.471 320.069,117.777 320.094,118.625 320.124 M147.735 323.000 C 147.735 324.604,147.760 325.260,147.791 324.458 C 147.821 323.656,147.821 322.344,147.791 321.542 C 147.760 320.740,147.735 321.396,147.735 323.000 M116.902 323.167 C 116.902 324.771,116.927 325.427,116.957 324.625 C 116.988 323.823,116.988 322.510,116.957 321.708 C 116.927 320.906,116.902 321.563,116.902 323.167 M160.902 328.583 C 160.901 330.142,160.926 330.802,160.957 330.050 C 160.988 329.298,160.988 328.023,160.958 327.217 C 160.927 326.410,160.902 327.025,160.902 328.583 M227.875 328.750 C 227.877 329.117,227.911 329.247,227.951 329.040 C 227.991 328.832,227.990 328.532,227.948 328.373 C 227.906 328.214,227.874 328.383,227.875 328.750 M220.875 331.417 C 220.877 331.783,220.911 331.914,220.951 331.706 C 220.991 331.499,220.990 331.199,220.948 331.040 C 220.906 330.880,220.874 331.050,220.875 331.417 M272.866 330.958 C 273.846 330.987,275.496 330.987,276.532 330.958 C 277.569 330.929,276.767 330.904,274.750 330.904 C 272.733 330.904,271.885 330.928,272.866 330.958 M116.907 331.214 C 116.862 331.332,116.848 332.738,116.875 334.339 L 116.925 337.250 116.963 334.212 L 117.000 331.173 120.708 331.125 L 124.417 331.077 120.703 331.038 C 117.804 331.008,116.972 331.047,116.907 331.214 M147.735 334.167 C 147.735 335.771,147.760 336.427,147.791 335.625 C 147.821 334.823,147.821 333.510,147.791 332.708 C 147.760 331.906,147.735 332.563,147.735 334.167 M162.902 339.917 C 162.901 341.475,162.926 342.135,162.957 341.383 C 162.988 340.631,162.988 339.356,162.958 338.550 C 162.927 337.743,162.902 338.358,162.902 339.917 M243.042 343.115 C 243.202 343.157,243.465 343.157,243.625 343.115 C 243.785 343.073,243.654 343.039,243.333 343.039 C 243.012 343.039,242.881 343.073,243.042 343.115 " stroke="none" fill="#725d91" fill-rule="evenodd"></path></g></svg>