<?xml version="1.0" encoding="UTF-8" standalone="no"?>
<!DOCTYPE svg PUBLIC "-//W3C//DTD SVG 1.1//EN" "http://www.w3.org/Graphics/SVG/1.1/DTD/svg11.dtd">

<!-- Created with Vectornator (http://vectornator.io/) -->
<svg height="100%" stroke-miterlimit="10" style="fill-rule:nonzero;clip-rule:evenodd;stroke-linecap:round;stroke-linejoin:round;" version="1.1" viewBox="0 0 400 385.278" width="100%" xml:space="preserve" xmlns="http://www.w3.org/2000/svg" xmlns:vectornator="http://vectornator.io" xmlns:xlink="http://www.w3.org/1999/xlink">
<metadata>
<vectornator:setting key="IsTimeLapseWatermarkDisabled" value="false"/>
<vectornator:setting key="UndoHistoryDisabled" value="true"/>
<vectornator:setting key="VNDimensionsVisible" value="true"/>
<vectornator:setting key="VNSnapToGuides" value="true"/>
<vectornator:setting key="WDCMYKEnabledKey" value="false"/>
<vectornator:setting key="WDDisplayWhiteBackground" value="false"/>
<vectornator:setting key="WDDynamicGuides" value="false"/>
<vectornator:setting key="WDGuidesVisible" value="true"/>
<vectornator:setting key="WDIsolateActiveLayer" value="false"/>
<vectornator:setting key="WDOutlineMode" value="false"/>
<vectornator:setting key="WDRulersVisible" value="true"/>
<vectornator:setting key="WDSnapToEdges" value="false"/>
<vectornator:setting key="WDSnapToGrid" value="false"/>
<vectornator:setting key="WDSnapToPoints" value="false"/>
<vectornator:setting key="WDUnits" value="Points"/>
</metadata>
<defs/>
<clipPath id="ArtboardFrame">
<rect height="385.278" width="400" x="0" y="0"/>
</clipPath>
<g clip-path="url(#ArtboardFrame)" id="svgg" vectornator:layerName="svgg">
<g opacity="1">
<path d="M8 192.637C8 86.5489 93.9613 0.547467 200 0.547467C306.038 0.547467 392 86.5489 392 192.637C392 298.725 306.038 384.725 200 384.725C93.9613 384.725 8 298.725 8 192.637Z" fill="#040404" fill-rule="evenodd" opacity="1" stroke="none"/>
<g opacity="1">
<path d="M205.976 48.5698L205.976 155.059L295.939 195.278L205.976 48.5698Z" fill="#040404" fill-rule="evenodd" opacity="1" stroke="none"/>
<path d="M205.976 48.5698L116 195.278L205.976 155.059L205.976 48.5698Z" fill="#040404" fill-rule="evenodd" opacity="1" stroke="none"/>
<path d="M205.976 264.286L205.976 336.644L296.001 212.038L205.976 264.286Z" fill="#040404" fill-rule="evenodd" opacity="1" stroke="none"/>
<path d="M205.976 336.644L205.976 264.274L116 212.038L205.976 336.644Z" fill="#040404" fill-rule="evenodd" opacity="1" stroke="none"/>
<path d="M205.976 247.537L295.939 195.278L205.976 155.083L205.976 247.537Z" fill="#040404" fill-rule="evenodd" opacity="1" stroke="none"/>
<path d="M116 195.278L205.976 247.537L205.976 155.083L116 195.278Z" fill="#040404" fill-rule="evenodd" opacity="1" stroke="none"/>
</g>
</g>
<path d="M150.498 229.485L126.647 278.912C125.915 280.448 124.949 281.862 123.784 283.102C121.087 285.823 117.41 287.336 113.589 287.293C109.743 287.357 106.045 285.799 103.395 282.995C100.681 280.313 99.1758 276.634 99.2277 272.809C99.1822 270.144 99.9261 267.524 101.365 265.287L186.53 88.7902C187.26 87.1813 188.282 85.7234 189.544 84.4923C192.186 81.6767 195.889 80.1154 199.738 80.1943C203.58 80.155 207.267 81.7097 209.932 84.4923C211.04 85.5889 211.964 86.8589 212.668 88.253L297.834 264.75C299.475 267.116 300.33 269.944 300.27 272.83C300.24 278.665 296.735 283.912 291.375 286.15C286.015 288.387 279.845 287.179 275.714 283.081C274.547 281.843 273.581 280.429 272.85 278.89L272.701 278.89L248.85 229.464L234.916 200.581L199.717 127.644L164.39 200.581L150.498 229.485Z" fill="#ffffff" fill-rule="evenodd" opacity="1" stroke="none"/>
<path d="M179.128 155.364C180.099 157.732 180.893 159.745 180.893 159.838C180.893 159.946 179.572 160.007 177.208 160.007C175.181 160.007 173.522 159.982 173.522 159.95C173.522 159.92 174.283 158.054 175.212 155.804C176.142 153.554 176.973 151.534 177.059 151.313C177.271 150.775 177.143 150.522 179.128 155.364" fill="#fbfbfb" fill-rule="evenodd" opacity="1" stroke="none"/>
<path d="M146.426 258.863L135.649 268.971C135.318 269.285 134.882 269.575 134.355 269.828C133.137 270.385 131.476 270.694 129.749 270.685C128.011 270.698 126.34 270.38 125.143 269.806C123.916 269.258 123.236 268.505 123.259 267.723C123.239 267.178 123.575 266.642 124.225 266.185L162.708 230.09C163.038 229.761 163.499 229.463 164.07 229.211C165.264 228.635 166.937 228.316 168.676 228.332C170.412 228.324 172.078 228.642 173.282 229.211C173.783 229.435 174.201 229.695 174.519 229.98L213.002 266.075C213.743 266.559 214.13 267.137 214.102 267.727C214.089 268.921 212.505 269.994 210.083 270.451C207.661 270.909 204.873 270.662 203.007 269.824C202.479 269.571 202.043 269.281 201.713 268.967L201.645 268.967L190.868 258.859L184.571 252.952L168.666 238.036L152.704 252.952L146.426 258.863Z" fill="#ffffff" fill-rule="evenodd" opacity="1" stroke="none"/>
<path d="M252.469 86.3386C254.713 92.0715 254.348 98.125 251.213 107.168C247.694 117.321 247.611 123.353 250.883 131.194C251.912 133.659 251.931 133.463 250.686 133.153C245.799 131.935 241.29 133.666 234.965 139.191C225.957 147.058 217.651 150.859 209.415 150.882C207.658 150.887 207.618 150.968 208.661 152.414C218.125 165.528 229.812 168.536 244.572 161.652C256.15 156.253 266.743 161.731 271.316 175.483C278.329 196.572 268.806 218.529 246.666 232.318C224.775 245.952 200.578 244.942 180.111 229.539C178.518 228.342 175.875 226.419 174.235 225.267C172.595 224.116 170.604 222.642 169.811 221.991C166.611 219.37 162.352 216.231 158.958 213.996C158.023 213.378 156.23 212.051 154.977 211.048C141.195 200.013 129.019 197.611 119.447 204.041C117.785 205.156 116.918 205.92 113.415 209.359C109.85 212.859 109.08 213.479 104.871 216.243C100.456 219.142 99.5058 220.43 99.5138 223.508C99.5249 227.549 101.276 230.189 105.959 233.224C109.88 235.764 113.223 238.937 115.656 242.427C116.444 243.556 116.503 243.782 115.971 243.626C115.762 243.566 114.764 243.447 113.75 243.361C109.336 242.99 104.265 242.359 102.303 241.938C98.5659 241.135 95.2376 242.119 95.2376 244.028C95.2376 245.713 96.5042 247.174 107.114 257.733C136.957 287.433 169.878 305.384 197.077 306.789L199.316 306.904L197.574 304.745C191.668 297.426 188.25 291.345 185.532 283.32C182.245 273.615 178.142 266.423 172.641 260.722L170.882 258.898L171.887 259.408C176.639 261.819 180.268 266.167 187.09 277.624C197.603 295.277 202.398 301.405 210.254 307.221C225.152 318.251 247.375 319.441 272.993 310.582L273.913 310.264L272.742 309.882C267.305 308.108 263.99 305.218 253.122 292.779C245.061 283.552 239.31 279.407 233.081 278.337C231.698 278.098 231.666 277.981 232.913 277.719C240.116 276.215 248.908 280.252 258.286 289.368C260.405 291.428 259.945 291.333 261.792 290.091C308.702 258.549 318.624 191.982 282.995 147.826C279.22 143.147 276.214 136.828 274.527 130.021C273.656 126.505 273.242 123.948 272.248 115.948C270.516 102.024 268.443 96.8795 262.565 91.9298C259.607 89.4388 252.043 85.25 252.469 86.3386M205.019 98.7483C204.91 98.8156 204.309 98.8498 203.683 98.8227C203.058 98.7965 202.441 98.8136 202.313 98.8629C202.185 98.9111 201.355 98.9835 200.47 99.0247C199.585 99.0649 197.918 99.2147 196.766 99.3575C195.614 99.5002 194.238 99.6651 193.708 99.7224C193.179 99.7807 192.745 99.8822 192.745 99.9475C192.745 100.014 192.537 100.066 192.284 100.064C191.807 100.061 190.565 100.214 189.981 100.349C189.796 100.391 189.51 100.431 189.343 100.438C189.176 100.445 189.085 100.526 189.142 100.616C189.202 100.714 189.13 100.739 188.969 100.676C188.453 100.478 184.645 101.394 184.818 101.675C184.879 101.773 184.838 101.79 184.718 101.716C184.409 101.526 182.998 101.775 183.134 101.995C183.204 102.108 183.169 102.13 183.044 102.052C182.932 101.983 182.373 102.043 181.803 102.186C181.232 102.329 180.556 102.49 180.299 102.542C180.041 102.595 179.866 102.696 179.91 102.766C179.953 102.836 179.815 102.907 179.604 102.925C178.991 102.975 177.576 103.389 175.279 104.193C174.104 104.603 173.143 104.914 173.143 104.884C173.143 104.795 171.065 105.665 170.839 105.849C170.724 105.944 170.63 105.965 170.63 105.896C170.63 105.827 170.507 105.873 170.356 105.998C170.205 106.124 169.998 106.231 169.895 106.238C169.715 106.249 169.6 106.292 168.578 106.71C168.324 106.814 168.117 106.959 168.117 107.033C168.117 107.107 167.984 107.145 167.824 107.118C167.647 107.088 167.55 107.16 167.579 107.3C167.614 107.46 167.519 107.502 167.27 107.437C166.842 107.325 166.406 107.463 166.535 107.671C166.585 107.752 166.515 107.776 166.379 107.724C166.243 107.672 165.98 107.781 165.795 107.966C165.604 108.157 165.431 108.227 165.397 108.125C165.361 108.017 165.229 108.054 165.063 108.219C164.913 108.369 164.627 108.493 164.427 108.493C164.201 108.493 164.03 108.624 163.974 108.842C163.923 109.034 163.836 109.118 163.78 109.03C163.719 108.933 163.351 109.018 162.878 109.236C162.439 109.438 162.123 109.648 162.177 109.701C162.232 109.756 161.969 109.851 161.594 109.914C161.219 109.978 160.913 110.097 160.913 110.18C160.913 110.262 160.725 110.377 160.494 110.434C160.265 110.491 160.119 110.606 160.17 110.688C160.221 110.771 160.112 110.838 159.93 110.838C159.747 110.838 159.482 110.953 159.341 111.093C159.202 111.232 159.027 111.329 158.953 111.307C158.783 111.255 157.88 111.84 157.609 112.176C157.456 112.367 157.403 112.375 157.399 112.208C157.395 112.042 157.329 112.053 157.131 112.251C156.986 112.395 156.798 112.514 156.712 112.514C156.626 112.514 156.557 112.632 156.557 112.775C156.557 112.918 156.478 112.987 156.381 112.927C156.154 112.787 155.049 113.308 155.049 113.554C155.049 113.658 154.999 113.693 154.939 113.632C154.775 113.468 154.365 113.864 154.49 114.066C154.549 114.163 154.517 114.192 154.42 114.13C154.165 113.974 153.689 114.19 153.821 114.403C153.889 114.512 153.829 114.542 153.665 114.479C153.392 114.375 152.96 114.725 153.14 114.905C153.194 114.96 153.082 114.963 152.89 114.912C152.661 114.853 152.504 114.914 152.436 115.09C152.379 115.239 152.279 115.327 152.211 115.285C152.145 115.244 151.846 115.432 151.549 115.705C151.251 115.977 150.916 116.199 150.804 116.199C150.691 116.199 150.338 116.438 150.018 116.731C149.698 117.023 149.418 117.25 149.395 117.234C149.207 117.105 149.048 117.258 149.135 117.484C149.209 117.676 149.179 117.723 149.038 117.637C148.838 117.513 147.007 118.641 147.007 118.888C147.007 118.955 146.848 119.05 146.655 119.1C146.431 119.16 146.349 119.267 146.429 119.398C146.505 119.519 146.487 119.559 146.384 119.495C146.118 119.33 144.785 120.366 144.894 120.652C144.966 120.838 144.891 120.871 144.574 120.791C144.256 120.712 144.158 120.753 144.158 120.966C144.158 121.12 144.083 121.198 143.989 121.141C143.897 121.084 143.777 121.152 143.723 121.293C143.669 121.433 143.485 121.592 143.314 121.647C143.127 121.706 143.041 121.844 143.097 121.99C143.159 122.152 143.111 122.204 142.953 122.143C142.708 122.05 140.611 123.719 139.381 124.989C139.011 125.371 138.569 125.737 138.4 125.801C138.221 125.87 138.131 126.021 138.185 126.161C138.246 126.32 138.196 126.371 138.043 126.312C137.721 126.188 132.758 131.064 132.881 131.382C132.94 131.536 132.888 131.585 132.728 131.524C132.443 131.414 130.812 133.234 130.888 133.574C130.915 133.693 130.831 133.791 130.699 133.791C130.569 133.791 130.131 134.162 129.728 134.614C126.083 138.713 124.979 140.166 125.015 140.817C125.033 141.169 125.015 141.189 124.912 140.929C124.796 140.635 124.759 140.646 124.423 141.075C124.223 141.329 124.1 141.603 124.15 141.685C124.2 141.766 124.125 141.833 123.983 141.833C123.842 141.833 123.678 142.022 123.62 142.252C123.562 142.482 123.456 142.671 123.383 142.671C123.311 142.671 122.999 143.066 122.692 143.551C122.384 144.034 121.999 144.576 121.837 144.755C121.54 145.082 121.478 145.258 121.529 145.645C121.544 145.76 121.48 145.854 121.387 145.854C120.951 145.854 119.909 147.528 120.126 147.88C120.176 147.962 120.111 147.987 119.979 147.936C119.725 147.839 119.465 148.293 119.627 148.554C119.679 148.64 119.635 148.689 119.527 148.664C119.42 148.639 119.245 148.769 119.138 148.954C119.032 149.138 118.906 149.326 118.861 149.372C118.758 149.474 118.45 150.001 117.796 151.197C117.397 151.927 117.338 152.158 117.491 152.404C117.632 152.63 117.632 152.737 117.49 152.825C117.382 152.892 117.347 152.868 117.408 152.768C117.467 152.672 117.39 152.491 117.235 152.366C117.041 152.208 116.992 152.202 117.079 152.346C117.148 152.461 117.125 152.556 117.027 152.556C116.93 152.556 116.85 152.624 116.85 152.707C116.85 152.791 116.576 153.337 116.241 153.922C115.906 154.507 115.63 155.079 115.627 155.194C115.624 155.31 115.577 155.403 115.522 155.403C115.371 155.403 114.927 156.465 114.978 156.705C115.003 156.822 114.925 156.897 114.805 156.872C114.677 156.846 114.593 156.979 114.6 157.195C114.607 157.397 114.532 157.548 114.433 157.53C114.334 157.512 114.271 157.667 114.293 157.874C114.317 158.099 114.25 158.234 114.125 158.209C114.011 158.187 113.937 158.262 113.96 158.378C113.983 158.492 113.926 158.587 113.834 158.587C113.742 158.587 113.667 158.702 113.667 158.842C113.667 158.982 113.361 159.706 112.986 160.45C112.612 161.194 112.405 161.744 112.526 161.674C112.654 161.598 112.634 161.678 112.477 161.867C112.166 162.242 111.922 162.794 111.974 163.011C111.993 163.095 111.949 163.208 111.874 163.262C111.635 163.439 111.204 164.345 110.911 165.289C110.753 165.795 110.523 166.436 110.399 166.712C110.137 167.295 109.735 168.35 109.729 168.471C109.726 168.518 109.676 168.631 109.616 168.725C109.557 168.817 109.453 169.194 109.385 169.562C109.318 169.93 109.216 170.269 109.161 170.315C109.049 170.408 108.526 171.98 107.879 174.168C107.648 174.951 107.393 175.819 107.31 176.095C107.229 176.372 107.041 177.125 106.893 177.77C106.746 178.415 106.507 179.395 106.363 179.948C105.912 181.678 105.816 182.097 105.63 183.15C105.531 183.713 105.502 184.309 105.565 184.476C105.651 184.699 105.624 184.742 105.461 184.642C105.294 184.538 105.262 184.612 105.326 184.949C105.372 185.194 105.341 185.394 105.256 185.394C105.17 185.394 105.118 185.525 105.138 185.686C105.158 185.848 105.128 186.169 105.07 186.399C104.96 186.833 104.913 187.137 104.627 189.247C104.18 192.544 104.046 193.755 104.04 194.566C104.036 195.05 103.993 195.446 103.944 195.446C103.722 195.446 103.527 208.829 103.747 209.048C103.878 209.179 106.246 208.064 107.97 207.059L108.389 206.815L108.389 202.177C108.389 199.627 108.445 197.412 108.515 197.256C108.584 197.102 108.565 196.927 108.473 196.869C108.361 196.801 108.36 196.661 108.471 196.455C108.562 196.285 108.711 195.328 108.802 194.329C109.025 191.887 109.271 189.843 109.465 188.827C109.693 187.626 109.89 186.028 109.851 185.686C109.833 185.525 109.882 185.394 109.961 185.394C110.041 185.394 110.164 184.997 110.237 184.514C110.31 184.029 110.382 183.596 110.399 183.55C110.521 183.192 110.665 182.546 110.715 182.127C110.747 181.85 110.817 181.51 110.869 181.373C110.969 181.109 111.22 180.031 111.513 178.608C111.608 178.147 111.751 177.692 111.829 177.596C111.908 177.5 111.937 177.162 111.891 176.842C111.831 176.412 111.854 176.327 111.982 176.513C112.13 176.73 112.154 176.725 112.156 176.475C112.159 176.205 112.703 174.329 112.995 173.582C113.067 173.397 113.316 172.642 113.547 171.903C114.026 170.373 115.019 167.731 115.515 166.66C115.7 166.262 115.808 165.866 115.754 165.78C115.701 165.694 115.745 165.624 115.853 165.624C115.978 165.624 116.011 165.473 115.943 165.204C115.866 164.896 115.905 164.786 116.092 164.786C116.233 164.786 116.348 164.684 116.348 164.56C116.348 164.435 116.613 163.832 116.939 163.219C117.263 162.607 117.488 162.105 117.437 162.105C117.386 162.105 117.464 161.923 117.61 161.7C117.757 161.477 117.852 161.194 117.824 161.071C117.796 160.947 117.948 160.672 118.162 160.458C118.377 160.244 118.509 159.958 118.457 159.821C118.404 159.686 118.428 159.616 118.51 159.667C118.744 159.811 118.856 159.32 118.637 159.1C118.488 158.949 118.507 158.927 118.72 159.008C118.996 159.114 119.266 158.667 119.159 158.281C119.133 158.186 119.248 158.006 119.415 157.882C119.58 157.758 119.736 157.52 119.761 157.355C119.785 157.189 119.876 157.002 119.961 156.94C120.234 156.743 120.55 156.066 120.448 155.9C120.393 155.811 120.43 155.739 120.528 155.739C120.628 155.739 120.837 155.456 120.994 155.111C121.151 154.765 121.43 154.258 121.615 153.985C121.8 153.712 121.966 153.385 121.985 153.259C122.003 153.133 122.149 152.934 122.308 152.818C122.468 152.7 122.543 152.519 122.475 152.409C122.408 152.301 122.416 152.223 122.492 152.236C122.838 152.296 122.905 152.199 122.693 151.937C122.561 151.775 122.548 151.704 122.66 151.772C122.899 151.915 123.393 151.268 123.278 150.966C123.233 150.851 123.315 150.711 123.458 150.656C123.601 150.6 123.719 150.435 123.719 150.289C123.719 150.143 123.783 150.063 123.863 150.112C123.942 150.16 124.149 149.92 124.323 149.577C124.498 149.234 124.686 148.916 124.741 148.869C124.797 148.823 125.039 148.484 125.28 148.115C125.521 147.747 125.98 147.072 126.299 146.616C126.618 146.159 126.841 145.723 126.795 145.648C126.748 145.572 126.805 145.531 126.922 145.557C127.038 145.582 127.165 145.452 127.204 145.268C127.243 145.084 127.377 144.874 127.502 144.801C127.626 144.73 127.992 144.277 128.315 143.796C128.638 143.315 129.13 142.658 129.41 142.335C129.688 142.014 129.917 141.673 129.917 141.58C129.917 141.487 130.07 141.316 130.255 141.2C130.5 141.048 130.566 140.88 130.493 140.592C130.438 140.373 130.468 140.148 130.559 140.092C130.656 140.032 130.688 140.128 130.637 140.325C130.521 140.768 130.712 140.75 131.091 140.284C131.316 140.005 131.35 139.849 131.215 139.688C131.115 139.567 131.103 139.481 131.188 139.498C131.527 139.562 131.929 139.479 131.929 139.346C131.929 139.201 132.837 138.129 133.991 136.914C134.744 136.122 135.042 135.634 134.772 135.634C134.672 135.634 134.641 135.551 134.704 135.448C134.785 135.318 134.858 135.327 134.952 135.48C135.061 135.657 135.134 135.656 135.35 135.478C135.621 135.252 135.726 134.875 135.474 135.03C135.398 135.077 135.335 135.008 135.335 134.875C135.335 134.691 135.389 134.679 135.561 134.822C135.777 135.001 137.276 133.624 137.286 133.237C137.288 133.163 137.378 133.155 137.486 133.223C137.618 133.304 137.646 133.251 137.571 133.056C137.511 132.898 137.526 132.809 137.604 132.857C137.798 132.977 138.329 132.372 138.169 132.214C138.1 132.144 138.157 132.113 138.295 132.143C138.455 132.179 138.536 132.086 138.52 131.889C138.503 131.684 138.55 131.634 138.659 131.743C138.925 132.009 139.807 131.091 139.57 130.793C139.422 130.603 139.455 130.581 139.748 130.675C140.232 130.827 140.449 130.457 140.048 130.164C139.878 130.039 139.814 129.938 139.904 129.938C139.996 129.938 140.164 130.031 140.278 130.145C140.476 130.344 140.965 129.948 142.446 128.388C142.6 128.227 142.79 128.095 142.871 128.095C143.176 128.095 143.957 127.195 143.876 126.937C143.803 126.705 143.816 126.703 143.97 126.922C144.139 127.159 144.81 126.547 144.713 126.244C144.697 126.195 144.844 126.142 145.039 126.127C145.234 126.113 145.458 125.984 145.538 125.841C145.618 125.699 145.775 125.582 145.886 125.582C145.998 125.582 146.231 125.393 146.404 125.163C146.577 124.933 146.802 124.744 146.905 124.744C147.007 124.743 147.377 124.479 147.728 124.157C148.079 123.835 148.44 123.572 148.529 123.572C148.62 123.572 148.736 123.458 148.789 123.32C148.842 123.182 148.993 123.069 149.124 123.069C149.256 123.069 149.406 122.956 149.459 122.819C149.512 122.681 149.619 122.608 149.696 122.656C149.775 122.703 149.92 122.59 150.02 122.403C150.12 122.217 150.35 122.064 150.532 122.064C150.713 122.064 150.86 121.999 150.86 121.922C150.86 121.845 151.124 121.639 151.446 121.466C151.769 121.292 152.033 121.049 152.033 120.927C152.033 120.804 152.106 120.748 152.194 120.803C152.284 120.857 152.51 120.749 152.697 120.562C152.885 120.374 153.039 120.264 153.039 120.319C153.039 120.372 153.321 120.2 153.667 119.936C154.012 119.67 154.578 119.308 154.923 119.129C155.268 118.95 155.552 118.741 155.552 118.665C155.552 118.588 155.622 118.569 155.709 118.623C155.795 118.676 155.927 118.624 156.002 118.507C156.16 118.259 156.682 117.907 157.101 117.766C157.444 117.652 157.483 117.439 157.185 117.309C157.07 117.259 157.194 117.264 157.463 117.32C157.793 117.389 158.008 117.342 158.132 117.173C158.234 117.037 158.531 116.872 158.795 116.806C159.063 116.739 159.31 116.544 159.359 116.359C159.448 116.018 159.74 115.902 159.74 116.208C159.74 116.305 160.013 116.176 160.346 115.922C160.679 115.667 161.044 115.446 161.158 115.429C161.271 115.413 161.67 115.205 162.046 114.969C162.42 114.732 162.922 114.488 163.16 114.429C163.399 114.369 163.594 114.223 163.594 114.103C163.594 113.98 163.72 113.917 163.886 113.958C164.048 113.999 164.399 113.841 164.666 113.608C165.181 113.159 165.357 113.073 165.184 113.353C165.126 113.447 165.346 113.391 165.673 113.228C166 113.066 166.235 112.842 166.195 112.731C166.152 112.609 166.222 112.568 166.375 112.628C166.644 112.731 167.949 112.212 167.949 112.001C167.949 111.932 168.1 111.914 168.284 111.962C168.472 112.011 168.62 111.967 168.62 111.863C168.62 111.76 168.771 111.676 168.955 111.676C169.161 111.676 169.29 111.563 169.292 111.383C169.294 111.196 169.34 111.159 169.418 111.281C169.505 111.415 169.766 111.362 170.317 111.096C170.743 110.89 171.233 110.677 171.405 110.626C172.128 110.407 174.444 109.533 174.994 109.272C175.322 109.116 175.774 108.955 175.999 108.914C176.225 108.872 176.9 108.655 177.499 108.431C178.098 108.206 178.927 107.931 179.342 107.821C179.757 107.71 180.36 107.518 180.683 107.394C181.156 107.213 181.868 107.024 182.525 106.905C183.074 106.805 184.999 106.225 185.143 106.117C185.246 106.038 185.466 106.025 185.631 106.089C185.854 106.174 185.896 106.147 185.794 105.982C185.702 105.833 185.721 105.8 185.853 105.881C186.026 105.989 187.546 105.757 188.222 105.521C188.36 105.472 188.661 105.409 188.891 105.38C189.735 105.272 191.498 104.937 191.824 104.821C192.008 104.756 192.498 104.685 192.912 104.664C193.327 104.643 194.043 104.556 194.505 104.47C195.958 104.199 199.787 103.794 201.918 103.686C203.047 103.63 203.97 103.538 203.971 103.483C203.971 103.428 206.082 103.382 208.661 103.382C211.242 103.382 213.353 103.428 213.353 103.482C213.353 103.536 213.861 103.595 214.484 103.612C215.105 103.628 216.556 103.725 217.708 103.827C218.86 103.928 220.179 104.029 220.641 104.049C221.101 104.069 221.591 104.132 221.729 104.19C221.867 104.247 222.374 104.328 222.854 104.37C223.336 104.411 223.788 104.481 223.859 104.526C223.932 104.571 224.843 104.732 225.884 104.885C228.007 105.198 228.33 105.255 228.757 105.391C228.922 105.443 229.331 105.495 229.666 105.508C230 105.521 230.274 105.586 230.274 105.652C230.274 105.72 230.632 105.824 231.07 105.884C231.507 105.945 232.054 106.06 232.284 106.141C232.788 106.317 236.644 107.326 237.029 107.382C237.179 107.404 237.353 107.474 237.416 107.537C237.479 107.6 237.646 107.558 237.788 107.445C237.935 107.325 237.997 107.316 237.934 107.422C237.77 107.696 239 108.138 239.456 107.969C239.707 107.876 239.824 107.898 239.825 108.038C239.827 108.259 240.568 108.658 240.988 108.664C241.13 108.666 241.578 108.818 241.981 109.001C243.45 109.666 243.575 109.631 243.921 108.448C244.442 106.67 244.709 105.903 244.866 105.737C245.275 105.305 244.869 104.845 243.984 104.736C243.923 104.729 243.816 104.666 243.747 104.598C243.678 104.528 243.458 104.472 243.259 104.472C243.058 104.472 242.843 104.42 242.779 104.355C242.716 104.292 242.502 104.215 242.304 104.185C242.106 104.154 241.863 104.063 241.764 103.982C241.581 103.831 239.957 103.341 239.11 103.18C238.855 103.132 238.605 103.027 238.555 102.944C238.505 102.863 238.256 102.796 238.004 102.796C237.752 102.796 237.473 102.73 237.386 102.649C237.298 102.567 236.209 102.264 234.965 101.975C233.721 101.686 232.422 101.364 232.078 101.259C231.735 101.155 231.282 101.06 231.073 101.048C230.864 101.037 230.618 100.981 230.525 100.925C230.383 100.837 229.382 100.648 226.672 100.195C226.396 100.15 225.83 100.039 225.416 99.9505C225 99.8621 224.143 99.7485 223.509 99.6982C222.875 99.648 222.309 99.5776 222.252 99.5414C222.156 99.4821 220.723 99.3213 219.185 99.1966C218.602 99.1494 216.895 98.9734 215.781 98.8468C214.677 98.7201 205.204 98.6337 205.019 98.7483M130.759-81.8047C130.599-81.7625 130.298-81.7615 130.09-81.8017C129.881-81.8419 130.012-81.876 130.38-81.8781C130.749-81.8791 130.92-81.8469 130.759-81.8047M133.44-81.8047C133.28-81.7625 132.979-81.7615 132.77-81.8017C132.562-81.8419 132.692-81.876 133.061-81.8781C133.43-81.8791 133.6-81.8469 133.44-81.8047M127.616-78.0662C127.616-77.9747 127.503-77.8993 127.365-77.8993C127.227-77.8993 127.113-77.9747 127.113-78.0662C127.113-78.1587 127.227-78.2341 127.365-78.2341C127.503-78.2341 127.616-78.1587 127.616-78.0662M109.522-75.5531C109.522-75.4616 109.367-75.3862 109.177-75.3862C108.987-75.3862 108.878-75.4616 108.936-75.5531C108.993-75.6456 109.148-75.721 109.28-75.721C109.413-75.721 109.522-75.6456 109.522-75.5531M94.7788-75.2445C94.7788-75.1138 93.668-74.7107 93.3353-74.7198C93.1775-74.7248 94.439-75.349 94.6532-75.3722C94.7215-75.3802 94.7788-75.3229 94.7788-75.2445M48.8506-41.5018C48.7099-41.2394 48.6254-41.1942 48.5731-41.353C48.5309-41.4786 48.6003-41.6475 48.7269-41.7269C49.0617-41.939 49.0737-41.9179 48.8506-41.5018M157.681 239.273C158.355 239.808 159.332 241.491 159.102 241.721C158.722 242.101 153.876 239.735 153.876 239.17C153.876 238.508 156.819 238.589 157.681 239.273M152.871 241.119C154.194 242.461 156.041 243.179 158.525 243.315C160.465 243.422 160.484 243.439 159.594 244.243C157.659 245.992 154.554 245.081 152.734 242.234C151.762 240.711 151.84 240.073 152.871 241.119" fill="#7147ab" fill-rule="evenodd" opacity="1" stroke="none"/>
<path d="M101.18 241.36C101.029 241.603 101.393 241.848 101.909 241.852C102.19 241.854 102.283 241.772 102.243 241.561C102.178 241.218 101.361 241.065 101.18 241.36M104.061 241.463C103.617 241.906 104.239 242.356 105.295 242.356C105.623 242.356 105.567 241.714 105.221 241.48C104.991 241.325 104.21 241.314 104.061 241.463M107.133 242.25C107.133 242.606 107.227 242.657 108.077 242.756C109.172 242.885 109.195 242.875 109.05 242.293C108.888 241.65 107.133 241.609 107.133 242.25M110.483 242.499C110.483 242.968 110.529 243.002 111.331 243.112C112.331 243.25 112.412 243.2 112.205 242.576C111.957 241.827 110.483 241.761 110.483 242.499M113.778 242.468C113.421 242.826 113.681 243.361 114.211 243.364C114.511 243.365 114.925 243.412 115.132 243.467C115.561 243.583 115.686 242.935 115.308 242.557C115.096 242.345 113.967 242.279 113.778 242.468M117.631 242.804C117.159 243.277 117.539 243.697 118.441 243.697C119.246 243.697 119.363 243.655 119.363 243.368C119.363 242.847 118.024 242.411 117.631 242.804M121.607 243.264C121.452 243.669 121.573 243.721 122.523 243.664C123.554 243.603 123.493 243.269 122.418 243.097C121.847 243.007 121.693 243.038 121.607 243.264" fill="#fbfbfb" fill-rule="evenodd" opacity="1" stroke="none"/>
</g>
</svg>
