<?xml version="1.0" standalone="no"?>
<!DOCTYPE svg PUBLIC "-//W3C//DTD SVG 20010904//EN"
 "http://www.w3.org/TR/2001/REC-SVG-20010904/DTD/svg10.dtd">
<svg version="1.0" xmlns="http://www.w3.org/2000/svg"
 width="64.000000pt" height="64.000000pt" viewBox="0 0 64.000000 64.000000"
 preserveAspectRatio="xMidYMid meet">

<g transform="translate(0.000000,64.000000) scale(0.100000,-0.100000)"
fill="#000000" stroke="none">
<path d="M0 320 l0 -319 320 -1 320 0 0 320 0 320 -320 0 -320 0 0 -320z m400
185 c0 -18 -5 -25 -20 -25 -15 0 -20 7 -20 25 0 18 5 25 20 25 15 0 20 -7 20
-25z m50 10 c0 -8 -6 -15 -14 -15 -8 0 -17 -6 -19 -12 -3 -7 -6 -1 -6 15 -1
21 4 27 19 27 11 0 20 -7 20 -15z m31 8 c-11 -5 -11 -7 0 -14 12 -7 11 -9 -1
-9 -13 0 -13 -1 0 -10 13 -8 12 -10 -2 -10 -13 0 -18 8 -18 25 0 17 5 25 18
24 12 0 13 -2 3 -6z m54 -20 c1 -17 -1 -20 -11 -12 -8 7 -14 6 -17 -3 -3 -7
-6 0 -6 15 -1 21 3 28 16 25 9 -2 17 -13 18 -25z m55 4 c0 -16 -6 -23 -20 -23
-14 0 -20 7 -20 23 0 16 6 23 20 23 14 0 20 -7 20 -23z m-518 6 c-6 -2 -10 -9
-7 -13 3 -5 1 -11 -5 -15 -5 -3 -10 3 -10 14 0 14 6 21 18 20 10 0 12 -3 4 -6z
m48 -11 c0 -10 -7 -19 -15 -19 -8 0 -15 9 -15 19 0 10 7 18 15 18 8 0 15 -8
15 -18z m23 -7 c-7 -21 -13 -19 -13 6 0 11 4 18 10 14 5 -3 7 -12 3 -20z m27
4 c0 -11 -4 -18 -10 -14 -5 3 -7 12 -3 20 7 21 13 19 13 -6z m33 1 c-3 -11 -7
-20 -8 -20 -1 0 -5 9 -8 20 -3 12 0 20 8 20 8 0 11 -8 8 -20z m47 0 c0 -11 -7
-20 -15 -20 -8 0 -15 9 -15 20 0 11 7 20 15 20 8 0 15 -9 15 -20z m59 -2 c-1
-21 -2 -21 -7 -3 l-5 20 -8 -20 -8 -20 -1 20 -1 20 -9 -20 c-8 -19 -9 -19 -9
3 -1 17 5 22 24 22 20 0 25 -5 24 -22z m-231 -124 c0 -30 -4 -44 -11 -41 -15
5 -20 32 -13 63 10 40 24 27 24 -22z m172 0 c0 -32 -4 -44 -12 -41 -7 2 -13
19 -13 38 0 33 -2 34 -45 40 l-45 6 58 1 57 2 0 -46z m170 0 c0 -32 -4 -44
-12 -41 -7 2 -13 19 -13 38 0 33 -2 34 -45 40 l-45 6 58 1 57 2 0 -46z m170 0
c0 -32 -4 -44 -12 -41 -7 2 -13 19 -13 38 0 33 -2 34 -45 40 l-45 6 58 1 57 2
0 -46z m-360 -54 c0 -5 -22 -10 -50 -10 -27 0 -50 5 -50 10 0 6 23 10 50 10
28 0 50 -4 50 -10z m170 0 c0 -5 -22 -10 -50 -10 -27 0 -50 5 -50 10 0 6 23
10 50 10 28 0 50 -4 50 -10z m-320 -55 c0 -45 -12 -60 -24 -29 -8 21 -8 59 1
67 16 16 23 4 23 -38z m168 -2 l-3 -48 -64 -3 c-57 -3 -63 -1 -51 12 15 19 80
21 101 4 12 -11 12 -11 2 2 -14 15 -18 62 -6 73 17 17 24 3 21 -40z m170 0
l-3 -48 -64 -3 c-57 -3 -63 -1 -51 12 15 19 80 21 101 4 12 -11 12 -11 2 2
-14 15 -18 62 -6 73 17 17 24 3 21 -40z m172 1 c0 -40 -2 -45 -15 -34 -15 13
-21 61 -8 73 16 16 23 4 23 -39z m-507 -121 c-7 -2 -14 -14 -14 -26 -1 -21 -2
-21 -6 -2 -3 11 -10 23 -17 27 -6 4 3 7 19 7 17 0 24 -3 18 -6z m86 -20 c-2
-28 -2 -28 -7 -3 -4 23 -5 24 -13 5 l-8 -20 -1 20 c-2 17 -3 16 -10 -5 l-8
-25 -1 28 c-1 22 3 27 24 27 21 0 25 -4 24 -27z m32 20 c-11 -5 -11 -7 0 -14
12 -7 11 -9 -1 -9 -13 0 -13 -1 0 -10 13 -8 12 -10 -2 -10 -13 0 -18 8 -18 25
0 17 5 25 18 24 12 0 13 -2 3 -6z m69 4 c0 -2 -12 -14 -27 -28 l-28 -24 24 28
c23 25 31 32 31 24z m32 -6 c-8 -4 -13 -11 -12 -15 1 -4 -1 -12 -3 -19 -3 -6
-6 0 -6 16 -1 19 4 27 17 27 13 0 14 -2 4 -9z m61 2 c-7 -2 -14 -14 -14 -26
-1 -21 -2 -21 -6 -2 -3 11 -10 23 -17 27 -6 4 3 7 19 7 17 0 24 -3 18 -6z m66
-20 l-1 -28 -8 25 -8 25 -2 -25 -3 -25 -5 25 -5 25 -8 -25 -7 -25 -1 28 c-1
22 3 27 24 27 21 0 25 -5 24 -27z m33 2 c3 -15 1 -25 -7 -25 -9 0 -12 28 -6
48 3 9 9 -2 13 -23z m48 0 c0 -17 -5 -25 -17 -25 -14 0 -15 2 -5 9 8 4 14 12
14 16 0 4 -6 12 -14 16 -10 7 -9 9 5 9 12 0 17 -8 17 -25z m40 0 c0 -17 -5
-25 -17 -25 -14 0 -15 2 -5 9 8 4 14 12 14 16 0 4 -6 12 -14 16 -10 7 -9 9 5
9 12 0 17 -8 17 -25z m40 13 c0 -7 -5 -20 -11 -28 -9 -12 -10 -12 -5 4 4 11 1
23 -6 28 -10 6 -8 8 5 8 9 0 17 -6 17 -12z"/>
<path d="M370 505 c0 -8 5 -15 10 -15 6 0 10 7 10 15 0 8 -4 15 -10 15 -5 0
-10 -7 -10 -15z"/>
<path d="M560 510 c0 -5 5 -10 10 -10 6 0 10 5 10 10 0 6 -4 10 -10 10 -5 0
-10 -4 -10 -10z"/>
</g>
</svg>
