<?xml version="1.0" standalone="yes"?>
<svg xmlns="http://www.w3.org/2000/svg" width="512" height="512">
<path style="fill:#060606; stroke:none;" d="M0 0L0 512L512 512L512 0L0 0z"/>
<path style="fill:#f1f1f1; stroke:none;" d="M238 11.4244C190.178 17.7064 147.119 31.0906 108 60.4753C82.9297 79.3071 61.6676 103.057 45.6042 130C-19.8046 239.71 11.5939 385.325 117 457.975C140.447 474.135 166.465 486.006 194 493.265C225.561 501.586 258.733 503.064 291 498.718C325.541 494.065 359.929 481.164 389 461.997C505.414 385.241 535.816 225.388 454.421 112C439.611 91.37 421.618 73.1397 401 58.294C378.169 41.8546 353.09 28.807 326 21C298.378 13.0394 266.795 7.64182 238 11.4244z"/>
<path style="fill:#060606; stroke:none;" d="M48.044 163.696C43.1076 165.045 43.0232 169.745 43.0008 174C42.948 183.999 43 194 43 204L43 316C43 323.134 38.6403 351.944 51.956 348.304C56.8924 346.955 56.9768 342.255 56.9992 338C57.052 328.001 57 318 57 308L57 196C57 188.866 61.3597 160.056 48.044 163.696z"/>
<path style="fill:#11a1e9; stroke:none;" d="M105 245L106 245C107.256 229.627 116.136 214.44 126.001 203.001C168.285 153.965 257.246 157.505 284.421 221C288.082 229.553 291.257 238.666 292 248C294.408 241.83 290.604 232.078 288.656 226C281.975 205.153 268.423 186.838 249 176.309C196.278 147.727 106.42 176.565 105 245z"/>
<path style="fill:#01ffff; stroke:none;" d="M176 167L177 168L176 167M228 168L229 169L228 168z"/>
<path style="fill:#060606; stroke:none;" d="M371 168.424C355.572 170.425 342.068 172.495 328.001 179.757C322.836 182.423 315.142 191.816 325.044 194.562C333.732 196.972 347.25 186.722 356 184.654C376.596 179.789 399.049 183.158 417 194.698C475.295 232.175 461.437 318.268 394 335.522C383.455 338.219 372.733 338.44 362 337.155C353.037 336.082 344.215 334.08 336 330.218C281.685 304.688 304.84 242.387 273.486 202C238.386 156.788 160.898 159.957 125.464 203C87.0955 249.606 105.43 320.316 163 341.305C185.632 349.556 210.247 350.289 233 341.947C238.984 339.753 249.626 336.695 252.972 330.815C256.62 324.404 250.327 318.737 244 320.703C236.079 323.164 229.16 328.244 221 330.573C198.579 336.971 174.725 333.56 155 320.91C100.391 285.887 111.091 204.938 172 183.695C212.086 169.715 258.603 186.854 273.564 228C282.44 252.41 278.824 278.22 291.109 302C309.354 337.319 349.938 351.873 388 346.421C401.867 344.434 415.158 339.915 427 332.302C453.801 315.072 471.108 284.063 468.91 252C465.741 205.761 418.652 162.244 371 168.424z"/>
<path style="fill:#196489; stroke:none;" d="M190 169L190 170L209 170L190 169M359 169L360 170L359 169M182 170L182 171L185 171L182 170M214 170L214 171L218 171L214 170z"/>
<path style="fill:#01ffff; stroke:none;" d="M163 171L164 172L163 171z"/>
<path style="fill:#196489; stroke:none;" d="M177.667 171.333L178.333 171.667L177.667 171.333M221 171L221 172L224 172L221 171M173.667 172.333L174.333 172.667L173.667 172.333M226.667 172.333L227.333 172.667L226.667 172.333M402 172L403 173L402 172M170 173L171 174L170 173M230.667 173.333L231.333 173.667L230.667 173.333M167 174L168 175L167 174M233.667 174.333L234.333 174.667L233.667 174.333z"/>
<path style="fill:#01ffff; stroke:none;" d="M154 175L155 176L154 175z"/>
<path style="fill:#196489; stroke:none;" d="M164 175L165 176L164 175M236.667 175.333L237.333 175.667L236.667 175.333M162 176L163 177L162 176M239 176L240 177L239 176M159 177L160 178L159 177M241 177L242 178L241 177M157 178L158 179L157 178M244 178L245 179L244 178z"/>
<path style="fill:#01ffff; stroke:none;" d="M147 179L148 180L147 179z"/>
<path style="fill:#196489; stroke:none;" d="M155 179L156 180L155 179M246 179L247 180L246 179M153 180L154 181L153 180M151 181L152 182L151 181M249 181L250 182L249 181M226 182L227 183L226 182M251 182L252 183L251 182M148 183L149 184L148 183M253 183L254 184L253 183M426 183L427 184L426 183M146 184L147 185L146 184M254 184L255 185L254 184M145 185L146 186L145 185M143 186L144 187L143 186M257 186L258 187L257 186z"/>
<path style="fill:#01ffff; stroke:none;" d="M136 187L137 188L136 187z"/>
<path style="fill:#196489; stroke:none;" d="M142 187L143 188L142 187M345 187L346 188L345 187z"/>
<path style="fill:#01ffff; stroke:none;" d="M265 188L266 189L265 188z"/>
<path style="fill:#196489; stroke:none;" d="M139 189L140 190L139 189M261 189L262 190L261 189M138 190L139 191L138 190M262 190L263 191L262 190M137 191L138 192L137 191M263 191L264 192L263 191z"/>
<path style="fill:#01ffff; stroke:none;" d="M268 191L269 192L268 191z"/>
<path style="fill:#196489; stroke:none;" d="M264 192L265 193L264 192M439 193L440 194L439 193M250 194L251 195L250 194M131 196L132 197L131 196M268 196L269 197L268 196M130 197L131 198L130 197M269 197L270 198L269 197M129 198L130 199L129 198M270 198L271 199L270 198M271 199L272 200L271 199M274 203L275 204L274 203M124 204L125 205L124 204M123 205L124 206L123 205M261 205L262 206L261 205M276 206L277 207L276 206M121 208L122 209L121 208M120 209L121 210L120 209M278 209L279 210L278 209z"/>
<path style="fill:#01ffff; stroke:none;" d="M115 212L116 213L115 212z"/>
<path style="fill:#196489; stroke:none;" d="M118 212L119 213L118 212M280 212L281 213L280 212M455 212L456 213L455 212z"/>
<path style="fill:#01ffff; stroke:none;" d="M283 213L284 214L283 213z"/>
<path style="fill:#196489; stroke:none;" d="M117 214L118 215L117 214M281 214L282 215L281 214M116 215L117 216L116 215M282 216L283 217L282 216M115 217L116 218L115 217M283 218L284 219L283 218M114 219L115 220L114 219M459 219L460 220L459 219M443 220L444 221L443 220M113 221L114 222L113 221M284 221L285 222L284 221M112 223L113 224L112 223M285 223L286 224L285 223M111 225L112 226L111 225M286.333 225.667L286.667 226.333L286.333 225.667M110 228L111 229L110 228M287 228L288 229L287 228M463 228L464 229L463 228M109 230L110 231L109 230M288.333 231.667L288.667 232.333L288.333 231.667M108 233L109 234L108 233M289 235L290 236L289 235M107.333 236.667L107.667 237.333L107.333 236.667M290.333 238.667L290.667 239.333L290.333 238.667M106.333 240.667L106.667 241.333L106.333 240.667M291.333 243.667L291.667 244.333L291.333 243.667M105 245L105 248L106 248L105 245z"/>
<path style="fill:#11a1e9; stroke:none;" d="M104 246L104 251L105 251L104 246z"/>
<path style="fill:#196489; stroke:none;" d="M292 248L292 252L293 252L292 248M468 248L469 249L468 248M104 251L104 255L105 255L104 251z"/>
<path style="fill:#11a1e9; stroke:none;" d="M293 251L293 256L294 256L293 251z"/>
<path style="fill:#196489; stroke:none;" d="M293 256L293 266L294 266L293 256M118 261L119 262L118 261z"/>
<path style="fill:#11a1e9; stroke:none;" d="M454 262L454 268L455 268L454 262M294 264C294.593 292.708 312.301 320.764 339 331.547C383.96 349.705 451.619 324.606 454 270L453 270C445.467 325.897 370.82 350.073 327 320.48C313.932 311.655 304.178 297.817 299.079 283C296.972 276.879 296.61 269.814 294 264z"/>
<path style="fill:#196489; stroke:none;" d="M454 268L454 272L455 272L454 268z"/>
<path style="fill:#01ffff; stroke:none;" d="M453 269L454 270L453 269z"/>
<path style="fill:#196489; stroke:none;" d="M294 270L294 273L295 273L294 270M295.333 275.667L295.667 276.333L295.333 275.667M453.333 275.667L453.667 276.333L453.333 275.667M452.333 279.667L452.667 280.333L452.333 279.667M296 280L297 281L296 280M451.333 282.667L451.667 283.333L451.333 282.667M297.333 283.667L297.667 284.333L297.333 283.667z"/>
<path style="fill:#01ffff; stroke:none;" d="M299 284L300 285L299 284z"/>
<path style="fill:#196489; stroke:none;" d="M450.333 285.667L450.667 286.333L450.333 285.667M298 287L299 288L298 287M449 288L450 289L449 288M299.333 289.667L299.667 290.333L299.333 289.667z"/>
<path style="fill:#01ffff; stroke:none;" d="M301 289L302 290L301 289z"/>
<path style="fill:#196489; stroke:none;" d="M448 290L449 291L448 290M300 292L301 293L300 292M447 292L448 293L447 292z"/>
<path style="fill:#01ffff; stroke:none;" d="M444 293L445 294L444 293z"/>
<path style="fill:#196489; stroke:none;" d="M301 294L302 295L301 294M446 294L447 295L446 294M445 296L446 297L445 296z"/>
<path style="fill:#01ffff; stroke:none;" d="M305 297L306 298L305 297z"/>
<path style="fill:#196489; stroke:none;" d="M444 298L445 299L444 298M304 300L305 301L304 300M443 300L444 301L443 300M133 301L134 302L133 301M442 301L443 302L442 301M305 302L306 303L305 302M306 304L307 305L306 304M440 304L441 305L440 304M307 305L308 306L307 305M308 307L309 308L308 307M309 308L310 309L309 308M437 308L438 309L437 308M436 309L437 310L436 309M435 310L436 311L435 310M311 311L312 312L311 311M312 312L313 313L312 312M313 313L314 314L313 313M429 316L430 317L429 316M428 317L429 318L428 317M427 318L428 319L427 318M426 319L427 320L426 319M320 320L321 321L320 320z"/>
<path style="fill:#01ffff; stroke:none;" d="M326 320L327 321L326 320z"/>
<path style="fill:#196489; stroke:none;" d="M321 321L322 322L321 321M423 321L424 322L423 321M322 322L323 323L322 322M422 322L423 323L422 322M420 323L421 324L420 323M325 324L326 325L325 324M419 324L420 325L419 324M417 325L418 326L417 325M328 326L329 327L328 326z"/>
<path style="fill:#01ffff; stroke:none;" d="M337 326L338 327L337 326z"/>
<path style="fill:#196489; stroke:none;" d="M330 327L331 328L330 327M414 327L415 328L414 327M332 328L333 329L332 328M412 328L413 329L412 328M334 329L335 330L334 329M410 329L411 330L410 329M336 330L337 331L336 330M408 330L409 331L408 330M338 331L339 332L338 331M405.667 331.333L406.333 331.667L405.667 331.333M341 332L342 333L341 332M403 332L404 333L403 332M190 333L191 334L190 333M344 333L345 334L344 333M400 333L401 334L400 333M149 334L150 335L149 334M347.667 334.333L348.333 334.667L347.667 334.333M397 334L398 335L397 334M351.667 335.333L352.333 335.667L351.667 335.333M393.667 335.333L394.333 335.667L393.667 335.333M356 336L356 337L359 337L356 336M387 336L387 337L390 337L387 336M327 337L328 338L327 337M364 337L364 338L372 338L364 337M376 337L376 338L383 338L376 337z"/>
</svg>
