<svg id="Layer_1" data-name="Layer 1" xmlns="http://www.w3.org/2000/svg" viewBox="0 0 161 161"><defs><style>.cls-1{fill:#3dc7f4;}.cls-2{fill:#fff;}</style></defs><title>panicswap_A</title><rect class="cls-1" width="161" height="161" rx="43.18" ry="43.18"/><path class="cls-2" d="M7176,7221l-11.16,23a7.64,7.64,0,0,1-1.34,1.95,6.63,6.63,0,0,1-4.77,1.95,6.43,6.43,0,0,1-4.77-2,6.52,6.52,0,0,1-1.95-4.74,6.25,6.25,0,0,1,1-3.5l39.85-82.13a6.6,6.6,0,0,1,1.41-2,6.38,6.38,0,0,1,4.77-2,6.53,6.53,0,0,1,4.77,2,6.73,6.73,0,0,1,1.28,1.75l39.85,82.13a6.34,6.34,0,0,1,1.14,3.76,6.75,6.75,0,0,1-11.49,4.77,7.59,7.59,0,0,1-1.34-1.95h-.07l-11.16-23-6.52-13.44-16.47-33.94-16.53,33.94Z" transform="translate(-7118.6 -7119.22)"/></svg>